<?xml version="1.0" standalone="no"?>
<!DOCTYPE svg PUBLIC "-//W3C//DTD SVG 20010904//EN"
 "http://www.w3.org/TR/2001/REC-SVG-20010904/DTD/svg10.dtd">
<svg version="1.0" xmlns="http://www.w3.org/2000/svg"
 width="749.000000pt" height="747.000000pt" viewBox="0 0 749.000000 747.000000"
 preserveAspectRatio="xMidYMid meet">

<g transform="translate(0.000000,747.000000) scale(0.100000,-0.100000)"
fill="#000000" stroke="none">
<path d="M0 6238 c0 -799 4 -1228 10 -1218 5 8 23 59 40 113 18 58 35 95 41
91 6 -3 10 0 8 7 -1 8 -1 23 0 34 1 17 3 18 12 5 8 -11 9 -8 5 15 -6 27 -5 28
8 12 12 -15 8 -34 -29 -145 -24 -71 -55 -152 -69 -180 l-26 -51 0 -742 c0
-718 1 -742 18 -726 21 19 37 22 26 6 -4 -7 -8 -25 -10 -41 -2 -16 -11 -39
-19 -51 -13 -19 -15 -218 -15 -1694 l0 -1673 1125 0 1125 0 0 21 c0 14 -5 19
-14 16 -10 -4 -17 4 -21 24 -5 24 0 41 22 77 l29 47 61 1 c41 0 60 -4 56 -10
-4 -6 -18 -29 -33 -51 -15 -22 -39 -59 -54 -82 l-26 -43 140 0 140 0 0 28 c0
15 6 34 12 40 10 10 10 17 0 32 -6 11 -12 35 -12 54 0 22 -6 36 -16 40 -23 9
-15 28 41 100 43 55 56 65 90 71 84 13 233 20 310 15 l80 -5 -60 -46 c-33 -25
-85 -62 -115 -82 -53 -35 -261 -220 -268 -238 -2 -5 36 -9 85 -9 l89 0 111
109 c62 62 127 117 148 125 35 15 37 15 30 -2 -5 -9 -8 -28 -9 -42 -1 -22 3
-25 34 -25 27 0 37 -5 45 -22 11 -25 31 -32 21 -8 -3 9 0 15 10 15 10 0 14 -6
11 -14 -3 -8 -1 -16 6 -19 7 -2 4 -16 -9 -42 -16 -31 -29 -41 -67 -52 -26 -7
-47 -16 -47 -18 0 -3 41 -5 90 -5 l91 0 -3 73 c-3 68 -4 72 -25 70 -23 -3 -33
12 -10 15 6 1 38 5 70 8 l57 6 0 -86 0 -86 235 0 c217 0 235 1 235 18 1 16 1
16 14 0 19 -25 56 -24 56 2 0 12 8 33 18 47 13 20 13 25 2 18 -8 -5 -38 -9
-67 -9 -50 -1 -53 0 -59 29 -15 62 -14 63 30 58 23 -3 66 -12 96 -20 51 -14
75 -18 108 -22 6 0 12 -6 12 -11 0 -6 -8 -10 -17 -8 -14 2 -19 -6 -23 -37 -4
-30 -9 -40 -22 -39 -10 1 -18 -4 -18 -12 0 -12 41 -14 233 -14 128 0 237 4
242 9 6 5 49 4 100 -1 122 -13 228 -5 300 21 33 13 83 31 110 40 28 10 89 38
135 61 140 71 240 100 240 71 0 -4 -9 -34 -19 -67 -11 -32 -23 -76 -26 -96 -7
-34 -5 -38 14 -38 16 0 21 6 21 24 0 37 19 42 26 7 6 -26 11 -31 37 -31 l30 0
-6 124 c-6 121 -6 125 14 131 33 11 39 -10 39 -137 l0 -118 551 0 c437 0 549
3 543 13 -22 35 -51 73 -62 81 -10 6 -12 20 -8 50 3 22 8 151 11 286 3 134 9
247 13 251 4 3 50 11 102 18 52 6 106 14 120 18 25 6 25 6 6 -15 -17 -20 -18
-33 -11 -192 6 -147 5 -170 -8 -170 -17 0 -30 -40 -21 -64 3 -9 0 -26 -8 -39
-21 -31 -30 -106 -22 -177 l7 -60 423 0 424 0 0 879 0 880 -37 4 -38 4 38 1
37 2 0 2850 0 2850 -1711 0 -1711 0 40 -47 c61 -74 110 -156 123 -206 17 -70
8 -331 -15 -382 -17 -39 -72 -105 -88 -105 -4 0 -8 12 -8 26 0 14 -5 34 -10
44 -11 20 1 60 27 91 16 19 2 69 -19 69 -14 0 -58 88 -103 205 -41 107 -55
156 -55 201 0 23 -3 56 -6 73 l-6 31 -76 0 -75 0 7 -122 c3 -68 10 -150 15
-183 5 -33 7 -62 4 -65 -8 -8 -160 158 -177 194 -9 19 -27 48 -40 63 -12 15
-33 47 -46 71 l-24 42 -63 0 c-35 0 -63 -2 -63 -4 0 -1 12 -50 26 -107 14 -57
27 -129 30 -159 5 -72 20 -172 44 -296 11 -56 20 -113 20 -128 0 -18 12 -38
34 -59 18 -18 58 -63 88 -102 31 -38 69 -82 86 -97 18 -15 30 -33 28 -40 -1
-7 -1 -10 1 -6 6 11 103 -62 103 -77 0 -3 -13 1 -30 10 -16 9 -30 20 -30 26 0
6 -4 7 -10 4 -5 -3 -28 3 -52 15 -53 25 -70 14 -46 -33 22 -44 31 -129 17
-161 -9 -19 -9 -29 -1 -39 9 -11 6 -19 -14 -38 -19 -18 -24 -31 -21 -53 3 -19
-2 -35 -14 -47 -18 -18 -20 -18 -59 0 -23 10 -41 21 -41 25 2 20 0 26 -13 26
-8 0 -18 -12 -24 -27 -5 -16 -33 -55 -62 -87 -28 -32 -56 -70 -61 -83 -14 -38
-70 -56 -134 -43 -29 6 -56 10 -61 9 -5 -1 -22 -1 -38 0 -25 1 -27 3 -15 17 8
10 21 13 36 9 13 -3 23 -2 24 2 1 14 8 77 15 139 9 83 0 97 -67 100 -70 4 -79
6 -79 15 0 14 -54 15 -81 2 -15 -7 -34 -29 -44 -50 -23 -49 -22 -48 -39 -34
-13 11 -12 17 5 47 10 19 19 41 19 49 0 8 5 15 11 15 5 0 7 5 3 11 -3 6 0 15
7 20 10 6 14 30 14 79 0 67 6 87 19 55 3 -8 6 -17 6 -20 0 -3 9 -22 20 -42 11
-21 20 -43 20 -50 0 -7 5 -13 10 -13 22 0 22 34 2 76 -12 24 -19 50 -16 57 3
8 -9 27 -25 43 -38 37 -33 58 25 104 23 19 43 42 42 50 -1 38 4 52 27 72 30
26 24 41 -11 28 -17 -7 -23 -7 -19 0 3 6 -1 10 -9 10 -8 0 -18 5 -22 11 -5 9
4 10 32 5 l39 -6 -30 17 c-34 18 -19 30 17 13 l23 -11 -24 19 c-23 18 -23 20
-7 45 10 14 23 28 31 30 7 3 23 26 36 51 12 25 26 43 31 40 4 -3 8 5 9 18 0
13 3 37 5 53 2 17 5 68 7 115 2 84 2 85 -32 118 -31 30 -37 62 -11 62 5 0 10
9 10 20 0 11 3 20 8 20 20 0 57 125 43 148 -6 9 -91 12 -357 10 l-349 -3 50
-30 c57 -33 65 -42 65 -70 0 -47 -16 -50 -66 -9 -26 21 -58 49 -70 62 -13 12
-29 22 -35 22 -7 0 -20 7 -29 15 -14 13 -53 15 -254 13 l-237 -3 83 -62 c46
-34 99 -78 118 -98 32 -33 33 -36 18 -52 -15 -15 -19 -14 -52 5 -20 12 -42 26
-49 32 -43 37 -167 125 -198 141 -21 10 -40 23 -44 29 -4 6 -97 10 -253 10
l-247 0 45 -25 c25 -14 60 -32 78 -41 17 -9 32 -20 32 -25 0 -5 10 -9 23 -9
12 0 51 -14 87 -31 100 -47 162 -70 157 -56 -3 8 8 13 32 13 35 2 35 2 9 -8
-27 -9 -39 -28 -18 -28 6 0 10 5 10 10 0 6 8 10 19 10 10 0 24 7 31 15 10 13
9 15 -9 15 -11 0 -21 4 -21 9 0 14 -64 34 -68 21 -2 -5 -10 -10 -19 -10 -24 0
-83 31 -77 41 3 5 -8 15 -25 22 -17 7 -28 17 -24 21 5 5 -3 5 -17 2 -19 -6
-21 -5 -10 3 13 9 13 11 -2 11 -10 0 -18 4 -18 9 0 11 59 -11 95 -35 12 -8 53
-25 91 -38 115 -39 211 -96 198 -118 -4 -6 -1 -9 7 -6 33 11 79 -144 59 -197
l-11 -30 -19 25 c-10 14 -23 25 -28 25 -12 0 -105 48 -120 62 -7 7 -17 13 -22
13 -4 0 -40 31 -79 69 -63 61 -82 73 -168 106 -54 20 -126 50 -160 66 -42 20
-69 28 -86 24 -18 -5 -31 -1 -46 14 -11 11 -27 18 -35 15 -9 -3 -20 3 -28 15
-12 20 -21 20 -389 21 -328 0 -378 -2 -383 -15 -3 -8 -12 -15 -20 -15 -10 0
-13 6 -10 15 4 11 0 15 -16 15 -19 0 -20 -2 -10 -15 7 -8 8 -15 2 -15 -5 0
-15 7 -22 15 -10 12 -43 15 -181 15 l-169 0 0 -1232z m6270 1202 c0 -5 -6 -10
-14 -10 -8 0 -18 5 -21 10 -3 6 3 10 14 10 12 0 21 -4 21 -10z m-5094 -65 c15
-23 12 -45 -7 -45 -5 0 -9 11 -9 25 0 13 -8 29 -17 34 -17 10 -17 10 -1 11 10
0 25 -11 34 -25z m4729 -15 c8 0 16 -4 20 -9 8 -13 -33 -5 -51 10 -12 10 -12
14 -2 20 8 5 14 3 16 -6 2 -8 10 -15 17 -15z m-3199 -22 c24 -22 34 -39 32
-55 -4 -35 -22 -32 -33 5 -5 17 -14 32 -21 32 -11 0 -24 21 -24 41 0 15 9 11
46 -23z m-1566 12 c0 -5 -4 -10 -10 -10 -5 0 -10 5 -10 10 0 6 5 10 10 10 6 0
10 -4 10 -10z m1167 -126 c3 -8 2 -25 -1 -39 -4 -17 -11 -23 -23 -18 -13 5
-15 2 -11 -15 4 -12 1 -25 -4 -29 -8 -4 -9 7 -5 33 3 22 0 55 -7 76 l-13 37
29 -15 c16 -8 32 -22 35 -30z m466 21 c-7 -21 -13 -19 -13 6 0 11 4 18 10 14
5 -3 7 -12 3 -20z m117 -52 c14 -9 48 -36 76 -60 28 -24 58 -43 67 -43 28 0
124 -49 131 -66 9 -23 7 -87 -3 -102 -12 -19 -19 -17 -52 14 -20 19 -26 31
-19 39 11 13 3 25 -14 25 -6 0 -5 -4 3 -9 10 -7 10 -10 1 -16 -7 -4 -16 -1
-21 6 -5 8 -9 11 -9 7 0 -4 -12 4 -26 17 -14 13 -34 27 -43 30 -9 3 -25 18
-34 35 -10 16 -22 30 -27 30 -5 0 -22 12 -39 26 -22 18 -31 35 -31 55 0 34 6
35 40 12z m-759 -108 c10 -46 9 -58 -10 -111 -28 -76 -60 -118 -84 -109 -21 9
-22 28 -2 59 25 37 55 127 55 162 0 17 -7 51 -15 75 l-15 44 30 -34 c17 -20
34 -56 41 -86z m-1811 36 c36 -5 137 -18 225 -29 242 -31 462 -84 635 -151 72
-29 201 -93 218 -109 8 -7 35 -22 60 -33 118 -53 171 -81 217 -117 46 -34 50
-42 53 -82 2 -38 -2 -48 -24 -64 -29 -21 -26 -22 -133 41 -38 23 -71 51 -82
70 -22 40 -117 137 -192 197 -44 35 -65 45 -91 44 -22 -1 -65 14 -118 40 -46
22 -99 45 -118 50 -71 21 -227 52 -285 57 -211 18 -224 20 -362 51 -160 36
-162 55 -3 35z m1927 -147 c81 -72 135 -165 131 -225 -3 -42 -28 -69 -28 -30
0 11 -5 23 -10 26 -6 4 -8 11 -5 16 3 5 0 6 -8 3 -9 -3 -16 3 -20 16 -5 18 -9
20 -26 10 -14 -7 -21 -7 -21 0 0 5 7 10 15 10 26 0 16 22 -29 64 -43 41 -85
127 -65 134 6 2 5 10 -2 18 -27 33 11 10 68 -42z m4728 -83 c3 -5 1 -12 -5
-16 -5 -3 -10 1 -10 9 0 18 6 21 15 7z m-3357 -71 c0 -9 -3 -7 -8 5 -5 11 -8
29 -8 40 0 16 2 15 8 -5 4 -14 8 -32 8 -40z m1259 -15 c5 -56 10 -66 29 -58
10 4 15 2 11 -3 -3 -6 4 -16 16 -24 20 -12 21 -12 9 3 -17 20 -10 31 27 50 34
17 51 7 51 -30 0 -16 8 -27 25 -33 34 -13 32 -29 -5 -37 -17 -3 -33 -10 -36
-14 -3 -5 -14 -4 -25 1 -11 6 -24 8 -29 5 -6 -3 -14 5 -19 18 -13 33 -37 40
-76 21 -30 -14 -33 -19 -28 -48 5 -30 3 -33 -37 -46 -33 -11 -46 -11 -61 -2
-16 11 -32 8 -91 -13 -77 -28 -107 -22 -75 13 9 10 17 23 17 28 0 5 32 43 72
84 73 77 154 128 197 126 20 -1 25 -7 28 -41z m846 -19 c6 -15 1 -82 -9 -128
-3 -16 -1 -28 4 -28 15 0 23 -59 12 -81 -6 -10 -19 -19 -29 -19 -10 0 -23 -10
-30 -23 -7 -12 -25 -28 -42 -36 -22 -10 -29 -19 -29 -40 0 -15 -9 -36 -20 -46
-15 -13 -20 -31 -20 -67 0 -26 5 -48 10 -48 6 0 10 -20 10 -44 0 -25 5 -48 10
-51 6 -3 10 -17 10 -29 0 -20 -6 -25 -44 -30 -38 -6 -46 -4 -74 23 -27 24 -29
30 -15 35 14 6 13 9 -8 23 -13 9 -28 23 -32 30 -5 8 -16 11 -25 8 -25 -7 -55
52 -47 91 5 23 4 26 -5 14 -9 -11 -13 -12 -17 -2 -6 15 -23 16 -23 1 0 -19
-41 -69 -55 -69 -11 0 -13 10 -8 45 7 53 -3 57 -40 15 -30 -34 -61 -39 -76
-13 -8 16 -14 16 -41 6 -29 -11 -32 -10 -41 13 -5 14 -9 30 -9 35 0 15 -19 31
-72 62 -31 18 -48 35 -48 47 0 21 28 40 59 40 12 0 21 6 21 13 0 9 2 9 8 1 5
-9 11 -8 20 2 10 12 10 14 -2 14 -9 0 -13 6 -10 13 3 8 0 26 -5 40 -8 20 -17
27 -38 27 -16 0 -35 5 -43 10 -11 8 -7 9 14 4 21 -5 27 -4 21 5 -5 9 -1 9 15
-1 18 -10 24 -10 27 0 9 25 20 11 17 -20 -3 -25 -1 -30 7 -18 8 11 9 6 4 -20
l-5 -35 14 30 c11 24 11 32 1 40 -10 9 -10 14 0 28 7 9 17 17 24 17 6 0 11 4
11 9 0 15 88 34 128 27 26 -4 54 1 90 14 50 19 87 17 94 -5 2 -5 10 -9 18 -7
8 2 35 6 60 9 24 3 85 23 135 44 101 43 111 45 118 25z m-825 -104 c2 -7 -6
-12 -17 -12 -21 0 -27 11 -14 24 9 9 26 2 31 -12z m-2124 -7 c-6 -16 -24 -21
-24 -7 0 11 11 22 21 22 5 0 6 -7 3 -15z m286 -30 c0 -34 -5 -47 -19 -55 -33
-17 -41 -12 -25 18 8 15 12 39 8 55 -5 23 -2 27 15 27 18 0 21 -6 21 -45z
m-1159 -88 c7 -27 32 -61 77 -107 61 -62 81 -84 157 -175 17 -20 25 -41 24
-65 0 -19 -3 -28 -6 -20 -3 8 -11 20 -19 26 -33 27 -94 111 -94 130 0 12 -7
27 -15 34 -12 10 -15 10 -15 -1 0 -11 -2 -11 -10 1 -9 13 -10 13 -11 0 0 -8
-4 -4 -8 10 -5 17 -17 27 -42 33 -35 8 -52 33 -64 98 -3 13 -9 27 -15 33 -5 5
-10 17 -10 26 0 8 -7 28 -15 44 -22 42 -19 43 20 6 20 -19 40 -52 46 -73z
m4026 81 c-3 -8 -6 -5 -6 6 -1 11 2 17 5 13 3 -3 4 -12 1 -19z m-2957 -31 c0
-20 -25 1 -28 24 -2 23 -2 23 13 5 8 -11 15 -24 15 -29z m-267 15 c10 -10 24
-39 32 -64 17 -47 90 -133 106 -123 5 4 9 2 9 -4 0 -5 14 -12 30 -16 21 -5 39
-19 55 -46 25 -39 34 -99 15 -99 -5 0 -10 -10 -10 -22 -1 -33 -26 -62 -46 -54
-12 5 -15 14 -10 36 7 40 -8 78 -37 89 -12 5 -28 20 -36 34 -7 14 -23 30 -36
37 -12 7 -32 30 -44 51 -13 22 -32 41 -46 45 -43 11 -57 99 -23 142 14 16 22
15 41 -6z m1668 -13 c-12 -12 -25 -18 -29 -14 -4 4 2 13 12 21 30 22 43 17 17
-7z m-1531 -28 c33 -31 41 -45 38 -68 -2 -23 -7 -28 -26 -25 -13 1 -29 8 -35
15 -17 17 -57 92 -57 106 0 24 41 9 80 -28z m1274 -224 c84 -261 82 -257 100
-257 8 0 27 16 42 35 30 39 36 41 58 20 8 -8 21 -15 28 -15 22 0 39 -22 27
-36 -6 -8 -6 -20 2 -38 10 -22 9 -29 -6 -46 -11 -12 -13 -20 -6 -20 15 0 4
-49 -15 -70 -11 -11 -16 -11 -26 -2 -7 7 -22 12 -35 12 -21 0 -23 5 -23 44 0
30 -5 46 -15 50 -12 4 -15 -3 -15 -29 0 -18 5 -37 10 -40 6 -3 10 -24 10 -46
0 -22 5 -60 11 -84 l11 -44 26 32 c14 18 27 34 29 36 8 11 53 -45 53 -66 0
-19 -5 -23 -30 -23 -16 0 -30 4 -30 9 0 4 -11 6 -24 4 -22 -5 -23 -10 -29
-102 -6 -97 -13 -131 -27 -131 -4 0 -11 37 -14 83 -6 71 -22 159 -67 387 -13
62 -70 238 -104 320 -13 30 -26 80 -30 111 -7 56 0 119 13 119 4 -1 38 -96 76
-213z m-2257 171 c-3 -8 -6 -5 -6 6 -1 11 2 17 5 13 3 -3 4 -12 1 -19z m13
-30 c0 -7 -5 -20 -10 -28 -8 -12 -10 -9 -10 13 0 15 5 27 10 27 6 0 10 -6 10
-12z m2792 -113 c0 -5 -5 -11 -11 -13 -6 -2 -11 4 -11 13 0 9 5 15 11 13 6 -2
11 -8 11 -13z m-4252 -24 c0 -4 -16 -28 -35 -53 -19 -25 -44 -65 -57 -89 -16
-31 -24 -39 -26 -26 -2 9 -10 17 -19 17 -23 0 -14 13 60 90 69 71 77 77 77 61z
m3925 -61 c8 -12 -26 -59 -43 -60 -21 0 -25 30 -7 50 20 22 40 26 50 10z m578
-66 c-4 -12 -33 -21 -33 -10 0 2 -3 11 -6 19 -4 11 1 13 20 10 16 -3 23 -10
19 -19z m2317 11 c0 -8 -4 -15 -10 -15 -5 0 -10 7 -10 15 0 8 5 15 10 15 6 0
10 -7 10 -15z m-40 -21 c0 -8 -5 -12 -10 -9 -6 4 -8 11 -5 16 9 14 15 11 15
-7z m60 -14 c0 -5 -4 -10 -10 -10 -5 0 -10 5 -10 10 0 6 5 10 10 10 6 0 10 -4
10 -10z m-756 -26 c20 -8 11 -24 -15 -24 -19 0 -25 11 -12 23 8 8 8 8 27 1z
m-6221 -11 c-7 -2 -21 -2 -30 0 -10 3 -4 5 12 5 17 0 24 -2 18 -5z m1941 -20
c31 -40 57 -83 48 -83 -11 1 -42 26 -42 35 0 4 -8 13 -17 20 -16 12 -29 55
-17 55 3 0 16 -12 28 -27z m-67 -5 c-3 -8 -6 -5 -6 6 -1 11 2 17 5 13 3 -3 4
-12 1 -19z m931 0 c27 -27 -3 -98 -41 -98 -26 0 -49 26 -45 51 l4 24 12 -27
c13 -31 24 -39 38 -30 34 22 16 77 -22 68 -13 -4 -24 -2 -24 3 0 21 59 28 78
9z m-2854 -20 c-12 -22 -47 -58 -56 -58 -14 0 -9 16 13 44 21 26 57 38 43 14z
m5396 -43 c0 -21 5 -25 30 -25 20 0 30 -5 30 -15 0 -9 -10 -15 -26 -15 -25 0
-54 20 -54 38 0 6 -7 12 -15 16 -24 9 -17 26 10 26 20 0 25 -5 25 -25z m805
-4 c-3 -6 -11 -8 -17 -5 -6 4 -5 9 3 15 16 10 23 4 14 -10z m615 9 c0 -5 -5
-10 -11 -10 -5 0 -7 5 -4 10 3 6 8 10 11 10 2 0 4 -4 4 -10z m-650 -20 c0 -5
-5 -10 -11 -10 -5 0 -7 5 -4 10 3 6 8 10 11 10 2 0 4 -4 4 -10z m610 -16 c0
-8 -4 -14 -10 -14 -5 0 -10 9 -10 21 0 11 5 17 10 14 6 -3 10 -13 10 -21z
m-2461 4 c0 -7 -4 -22 -8 -32 -7 -19 -8 -18 -14 4 -3 13 -4 27 -1 32 8 12 24
10 23 -4z m2511 -13 c0 -8 -4 -15 -10 -15 -5 0 -10 7 -10 15 0 8 5 15 10 15 6
0 10 -7 10 -15z m-2550 -10 c0 -8 -4 -15 -10 -15 -5 0 -10 7 -10 15 0 8 5 15
10 15 6 0 10 -7 10 -15z m2970 -20 c-11 -13 -50 -9 -50 4 0 14 11 18 35 13 19
-3 23 -8 15 -17z m-1755 -5 c-4 -12 -1 -28 6 -36 11 -13 14 -12 25 8 l13 23 1
-27 c0 -25 4 -28 31 -28 18 0 38 -7 46 -17 9 -12 12 -14 11 -4 -3 13 21 23 93
38 14 2 42 -2 62 -11 33 -13 37 -19 37 -50 0 -21 -5 -36 -12 -36 -6 0 -4 -6 7
-13 13 -10 15 -16 6 -21 -7 -5 -20 -1 -30 8 -21 20 -35 20 -50 3 -8 -11 -6
-18 11 -33 19 -17 21 -17 15 -2 -10 28 9 30 21 3 8 -17 20 -25 36 -25 29 0 39
21 26 56 -16 40 -12 40 21 -2 25 -31 29 -45 24 -69 -4 -16 -7 -46 -8 -64 -2
-32 1 -36 31 -42 73 -15 38 -19 -121 -14 -177 6 -230 -7 -77 -19 103 -8 140
-19 140 -41 0 -19 14 -19 30 0 19 23 101 20 133 -5 20 -16 27 -17 36 -6 7 9
36 13 89 13 42 1 67 -1 54 -4 -12 -2 -20 -9 -17 -14 4 -5 -4 -5 -19 1 -15 5
-26 6 -26 0 0 -10 39 -25 58 -22 6 2 12 -2 12 -8 0 -5 -5 -10 -10 -10 -6 0 -3
-15 7 -32 9 -18 16 -39 14 -46 -1 -8 7 -16 18 -19 18 -5 21 -13 21 -64 0 -32
4 -60 9 -63 9 -6 28 -164 21 -181 -12 -30 -2 -77 21 -98 13 -12 28 -21 33 -19
5 2 6 -7 3 -18 -4 -18 -3 -19 9 -9 20 17 24 10 17 -39 -3 -24 -9 -38 -13 -32
-5 8 -9 7 -13 -5 -5 -11 -3 -14 5 -9 8 5 9 2 5 -9 -16 -40 -17 -50 -2 -24 8
15 23 27 33 27 13 0 12 -3 -6 -16 -27 -19 -28 -41 -2 -49 18 -6 20 -15 20
-111 0 -57 -4 -104 -9 -104 -5 0 -7 21 -4 48 4 39 1 52 -16 72 -18 21 -20 22
-14 5 3 -11 3 -17 -1 -13 -4 3 -26 -11 -48 -33 -39 -38 -41 -43 -46 -114 -4
-65 -2 -75 12 -75 14 0 15 -4 6 -21 -10 -17 -8 -21 9 -26 12 -3 21 -12 21 -19
0 -8 7 -14 15 -14 8 0 15 5 15 11 0 8 5 7 15 -1 19 -16 20 -15 31 40 8 37 10
19 12 -105 1 -98 -1 -145 -7 -135 -9 12 -11 12 -16 -2 -9 -23 -1 -54 13 -50 9
1 12 -119 12 -510 0 -427 -2 -514 -14 -527 -13 -15 -19 -58 -17 -123 1 -18 7
-28 16 -28 13 0 15 -29 10 -225 -2 -127 -9 -233 -15 -244 -13 -25 -13 -61 0
-61 7 0 11 -74 11 -217 0 -120 1 -267 1 -328 2 -140 -1 -305 -4 -305 -2 0 -27
9 -56 20 -29 11 -64 20 -78 20 -16 0 -40 15 -69 43 -24 24 -62 60 -85 81 l-42
38 2 158 c1 139 -2 164 -20 211 -19 48 -22 72 -20 204 1 102 6 159 15 180 18
39 30 152 18 168 -9 11 -10 90 -5 255 2 63 5 76 27 96 23 21 25 31 25 103 0
43 4 83 10 89 6 6 3 28 -11 63 -11 29 -17 56 -14 59 3 3 5 0 5 -6 0 -7 4 -12
9 -12 12 0 1 154 -10 158 -5 2 -9 15 -9 28 0 14 4 22 10 19 13 -8 13 26 0 59
-5 14 -6 26 -2 26 5 0 8 21 9 48 0 26 2 53 4 61 2 7 -2 16 -10 19 -9 3 -12 0
-9 -9 3 -8 2 -23 -3 -34 -14 -36 -10 36 5 77 8 21 10 35 5 32 -5 -3 -9 2 -9
10 0 9 5 16 10 16 6 0 10 5 10 11 0 5 -4 7 -10 4 -9 -5 -6 36 6 72 2 7 -2 12
-9 10 -7 -1 -10 5 -8 13 7 26 6 75 -1 80 -4 3 -8 45 -9 94 -1 71 1 90 14 97
22 13 10 47 -22 64 l-26 14 26 1 c35 0 42 10 23 31 -23 26 -31 282 -9 315 8
13 15 37 15 54 l0 30 -119 0 c-116 0 -119 1 -135 25 -15 23 -22 25 -95 25 -51
0 -82 4 -89 13 -8 9 7 11 74 9 l84 -3 0 31 c0 29 2 31 18 19 15 -13 16 -12 4
3 -8 9 -10 23 -6 29 5 8 3 9 -6 4 -9 -5 -11 -1 -6 16 3 13 3 18 0 12 -3 -7
-10 -13 -16 -13 -7 0 -8 17 -4 46 4 29 2 52 -5 60 -8 9 -8 18 -2 27 13 16 24
59 13 52 -4 -2 -10 26 -13 63 -15 165 -20 203 -28 208 -5 3 -9 43 -9 90 0 46
-4 84 -8 84 -17 0 -31 -77 -33 -177 -1 -85 -5 -107 -20 -124 -23 -27 -24 -18
-3 27 14 30 14 35 0 56 -18 25 -21 74 -6 83 6 4 8 11 4 16 -3 5 -1 16 5 23 6
7 8 22 4 32 -10 27 -53 66 -68 61 -20 -8 -33 6 -35 38 -4 60 -2 67 23 60 15
-4 18 -3 8 3 -11 8 -11 10 0 15 8 2 -9 3 -38 1 -43 -3 -51 -1 -47 11 4 8 -1
17 -10 21 -13 5 -15 23 -12 110 2 80 0 104 -10 104 -7 0 -16 -9 -19 -20 -7
-23 -25 -27 -25 -5 0 8 -5 15 -11 15 -5 0 -8 4 -4 9 3 5 -7 19 -21 30 -31 24
-28 32 16 36 17 1 33 5 37 9 14 13 24 5 18 -14z m-875 -9 c0 -12 -20 -25 -27
-18 -7 7 6 27 18 27 5 0 9 -4 9 -9z m-52 -24 c5 -24 -15 -21 -21 4 -3 13 -1
19 6 16 7 -2 13 -11 15 -20z m-1048 -52 c0 -10 -10 -15 -32 -14 l-33 1 30 13
c17 8 31 14 33 15 1 0 2 -7 2 -15z m45 -164 c-7 -25 -7 -25 -15 -4 -5 12 -4
37 3 60 l12 38 3 -34 c2 -19 0 -46 -3 -60z m1383 77 c7 -7 12 -20 12 -31 0
-17 -5 -18 -42 -12 -58 10 -62 14 -42 36 19 22 54 25 72 7z m232 -16 c0 -5 -9
-17 -20 -27 -18 -17 -20 -17 -26 0 -4 10 -1 21 7 26 18 11 39 12 39 1z m-2037
-9 c-7 -2 -19 -2 -25 0 -7 3 -2 5 12 5 14 0 19 -2 13 -5z m1970 -17 c6 -15 -1
-26 -15 -26 -4 0 -8 9 -8 20 0 23 15 27 23 6z m1561 -31 c-20 -30 -20 -30 -20
-6 0 11 4 18 7 15 4 -2 10 0 14 6 3 5 8 10 11 10 2 0 -3 -11 -12 -25z m-1484
0 c0 -8 -7 -15 -15 -15 -16 0 -20 12 -8 23 11 12 23 8 23 -8z m-869 -5 c20
-11 27 -40 9 -40 -5 0 -7 -7 -3 -16 4 -11 8 -12 13 -4 5 8 18 -1 37 -25 27
-32 29 -41 23 -72 -6 -27 -5 -33 5 -29 7 2 16 -1 19 -9 3 -9 0 -12 -9 -9 -8 3
-21 2 -29 -3 -11 -6 5 -9 45 -8 36 0 63 6 68 13 5 9 20 6 59 -13 29 -14 52
-30 52 -35 0 -6 11 -8 27 -4 22 6 25 4 20 -9 -3 -9 -1 -19 5 -23 7 -4 8 -3 4
4 -4 7 -2 12 3 12 14 0 14 -17 1 -25 -5 -3 -10 -17 -10 -31 0 -13 5 -24 10
-24 16 0 12 -57 -5 -64 -8 -3 -15 -12 -15 -21 0 -8 -4 -15 -9 -15 -4 0 -14
-21 -21 -47 -7 -27 -18 -54 -23 -61 -7 -9 -4 -19 12 -35 11 -13 21 -29 21 -35
0 -19 20 -14 21 6 0 10 3 12 6 5 9 -23 25 -14 18 10 -7 22 -7 22 9 2 13 -16
15 -17 10 -2 -3 9 -1 17 5 17 19 0 12 -41 -19 -107 -16 -34 -30 -65 -30 -68 0
-3 -24 -34 -52 -69 -36 -43 -56 -60 -61 -53 -5 7 -6 3 -2 -10 3 -12 1 -30 -4
-40 -16 -28 -41 -128 -41 -162 0 -23 -9 -37 -40 -62 -32 -26 -40 -39 -40 -66
0 -18 -2 -33 -4 -33 -20 0 -85 32 -143 72 -40 26 -76 48 -80 48 -5 0 -44 37
-88 82 -43 45 -81 76 -83 70 -5 -15 33 -70 72 -103 17 -15 25 -28 19 -32 -6
-4 -18 2 -28 13 -18 20 -18 20 -29 -1 -18 -36 -30 -22 -31 38 -1 37 -6 58 -14
61 -7 2 -21 14 -30 25 -64 80 -79 92 -100 80 -12 -7 -28 -13 -36 -13 -22 0
-66 30 -59 41 3 5 -3 6 -12 2 -12 -4 -15 -3 -10 5 4 7 5 12 2 12 -2 0 -13 3
-23 6 -15 5 -15 4 -3 -5 8 -6 10 -11 4 -11 -13 0 -90 54 -116 81 -10 10 -38
32 -62 49 -29 20 -43 36 -40 45 5 13 10 12 37 -1 50 -26 80 -56 65 -67 -10 -6
-8 -7 3 -4 20 6 39 -10 33 -28 -3 -6 2 -18 11 -25 18 -15 20 0 3 19 -11 11
-10 12 0 6 7 -4 18 -19 23 -33 8 -21 12 -24 20 -12 7 12 -5 28 -50 71 -61 58
-244 169 -278 169 -21 0 -56 -33 -66 -62 -7 -20 -68 -31 -146 -26 l-54 3 27
32 c20 24 34 31 59 31 18 -1 36 -6 40 -12 6 -8 10 -7 14 2 2 6 11 12 19 12 9
0 12 5 9 10 -3 6 2 10 12 10 14 0 18 8 19 34 0 35 22 96 34 96 4 0 28 -16 54
-37 l47 -36 49 23 c49 23 80 55 80 84 0 21 -110 129 -152 149 -20 9 -62 17
-95 18 -44 1 -52 3 -33 9 14 4 19 8 12 9 -17 1 1 19 44 43 57 32 190 0 227
-53 15 -21 15 -21 33 8 27 41 32 43 114 43 75 0 113 -11 91 -24 -6 -4 -11 -16
-11 -27 0 -24 26 -25 94 -4 27 8 52 13 55 10 2 -3 5 -20 5 -37 1 -28 4 -31 41
-36 72 -8 111 -5 146 14 19 10 36 19 39 19 33 6 145 85 119 85 -5 0 -8 4 -4 9
3 6 -12 11 -32 13 -35 3 -38 5 -36 33 1 20 13 39 35 58 18 15 26 27 19 27 -16
0 -71 38 -71 49 0 10 40 29 63 30 10 1 27 -4 38 -9z m2205 -21 c4 -8 1 -8 -14
0 -12 6 -24 16 -28 22 -4 8 -1 8 14 0 12 -6 24 -16 28 -22z m194 17 c0 -2 -8
-10 -17 -17 -16 -13 -17 -12 -4 4 13 16 21 21 21 13z m-5930 -32 c0 -8 -4 -14
-10 -14 -5 0 -10 9 -10 21 0 11 5 17 10 14 6 -3 10 -13 10 -21z m2795 -4 c3
-5 1 -10 -4 -10 -6 0 -11 5 -11 10 0 6 2 10 4 10 3 0 8 -4 11 -10z m2382 -7
c-9 -9 -19 -14 -23 -11 -10 10 6 28 24 28 15 0 15 -1 -1 -17z m663 -2 c-11
-21 -30 -37 -30 -25 0 8 30 44 37 44 2 0 -1 -9 -7 -19z m-700 -5 c0 -8 -4 -18
-10 -21 -5 -3 -10 3 -10 14 0 12 5 21 10 21 6 0 10 -6 10 -14z m-429 -19 c-10
-9 -11 -8 -5 6 3 10 9 15 12 12 3 -3 0 -11 -7 -18z m759 -12 c13 -14 21 -25
18 -25 -8 0 -48 36 -48 44 0 10 6 7 30 -19z m-690 -4 c0 -16 -28 -33 -35 -21
-3 6 -11 8 -16 5 -10 -7 -12 8 -2 18 9 10 53 8 53 -2z m603 -18 c-7 -2 -19 -2
-25 0 -7 3 -2 5 12 5 14 0 19 -2 13 -5z m-5408 -55 c-10 -51 -16 -70 -21 -65
-6 5 16 97 23 97 3 0 2 -15 -2 -32z m4811 5 c-7 -7 -26 7 -26 19 0 6 6 6 15
-2 9 -7 13 -15 11 -17z m-736 -36 c0 -64 -16 -83 -75 -92 -34 -5 -45 -1 -75
24 -34 29 -34 30 -16 50 11 12 31 21 45 21 14 1 40 12 56 25 50 41 65 34 65
-28z m-2122 -37 l0 -35 -8 30 c-4 17 -8 44 -8 60 0 29 0 29 8 5 4 -14 8 -41 8
-60z m3572 45 c-14 -7 -27 -10 -30 -6 -3 5 -12 11 -20 14 -8 3 5 6 30 6 44 0
44 0 20 -14z m-4790 -26 c-5 -18 -16 -39 -25 -49 -8 -9 -15 -22 -15 -28 0 -7
-4 -12 -10 -12 -23 0 -9 55 22 87 18 18 33 33 34 33 2 0 -1 -14 -6 -31z m4838
3 c2 -7 -3 -12 -12 -12 -9 0 -16 7 -16 16 0 17 22 14 28 -4z m-73 -13 c11 -17
-1 -21 -15 -4 -8 9 -8 15 -2 15 6 0 14 -5 17 -11z m233 -14 c-3 -3 -9 2 -12
12 -6 14 -5 15 5 6 7 -7 10 -15 7 -18z m-5761 -27 c-3 -8 -6 -5 -6 6 -1 11 2
17 5 13 3 -3 4 -12 1 -19z m5573 8 c0 -3 -4 -8 -10 -11 -5 -3 -10 -1 -10 4 0
6 5 11 10 11 6 0 10 -2 10 -4z m171 -23 c-12 -20 -14 -14 -5 12 4 9 9 14 11
11 3 -2 0 -13 -6 -23z m-3986 -40 c-8 -44 -37 -123 -46 -123 -4 0 -12 -14 -19
-30 -7 -17 -15 -29 -17 -26 -2 2 3 18 11 34 10 19 12 32 5 34 -6 2 -8 27 -3
72 5 48 10 63 16 52 12 -22 25 -20 33 4 11 35 26 22 20 -17z m-1768 -5 c-3 -7
-5 -2 -5 12 0 14 2 19 5 13 2 -7 2 -19 0 -25z m1555 -102 c-92 -94 -132 -141
-132 -153 0 -7 -4 -13 -10 -13 -5 0 -10 -8 -10 -17 0 -10 -17 -43 -36 -73 -20
-30 -33 -46 -30 -35 3 11 8 32 12 48 11 46 74 154 159 271 19 27 35 54 35 62
0 7 10 14 23 16 17 2 24 -3 30 -26 8 -26 3 -34 -41 -80z m118 80 c0 -12 -7
-31 -15 -42 -13 -18 -14 -16 -15 22 0 22 3 44 6 47 11 11 24 -3 24 -27z m386
-3 c-3 -8 -1 -11 4 -8 6 4 10 -19 10 -59 0 -51 -3 -66 -15 -66 -8 0 -19 -9
-25 -20 -6 -11 -8 -20 -5 -20 3 0 -4 -10 -15 -22 -12 -13 -16 -24 -10 -26 5
-2 10 -20 10 -39 0 -41 -9 -37 -25 9 -8 25 -19 35 -58 47 -54 18 -67 33 -66
76 0 30 0 30 10 5 10 -25 26 -40 45 -40 6 0 22 21 36 48 83 156 80 153 95 140
8 -6 12 -17 9 -25z m-988 15 c15 -15 15 -40 0 -73 -12 -26 -37 -34 -39 -12 0
6 -2 20 -4 29 -2 10 1 20 6 24 5 3 9 14 9 25 0 22 11 24 28 7z m4659 -10 c-3
-8 -6 -5 -6 6 -1 11 2 17 5 13 3 -3 4 -12 1 -19z m-5743 -37 c-4 -17 -9 -30
-11 -27 -3 2 -2 19 2 36 9 41 17 33 9 -9z m736 -19 c0 -47 -24 -85 -40 -62
-12 19 -13 83 -1 76 5 -3 11 1 15 9 11 28 26 15 26 -23z m4986 -8 c-8 -21 -15
-34 -15 -28 -1 15 20 76 25 71 2 -2 -2 -21 -10 -43z m-5749 4 c-3 -8 -6 -5 -6
6 -1 11 2 17 5 13 3 -3 4 -12 1 -19z m1023 -66 c-13 -20 -47 -84 -78 -142 -30
-58 -86 -159 -123 -226 -38 -66 -76 -138 -85 -159 -25 -60 -83 -147 -94 -140
-15 9 -12 25 5 25 8 0 15 7 15 14 0 8 16 41 35 73 19 32 35 63 35 69 0 6 9 22
19 36 11 13 51 85 90 160 38 74 86 162 105 194 20 33 36 67 36 76 0 9 6 23 13
30 8 7 20 25 27 38 12 21 15 22 18 7 2 -10 -6 -34 -18 -55z m-1012 19 c4 -28
-13 -20 -21 9 -3 14 -1 20 6 17 7 -2 14 -14 15 -26z m4706 2 c3 -10 8 -36 13
-58 l7 -40 7 35 c6 33 6 33 8 -12 1 -41 -2 -48 -18 -48 -29 0 -119 41 -125 57
-4 9 -2 11 6 7 8 -5 9 2 5 25 -6 27 -3 33 16 41 38 15 75 12 81 -7z m351 -3
c3 -5 -1 -10 -9 -10 -11 0 -16 -10 -16 -32 0 -18 -5 -40 -10 -48 -8 -12 -10
-9 -10 11 0 69 25 112 45 79z m-2441 -8 c3 -5 -6 -31 -19 -60 -21 -46 -26 -51
-52 -48 -15 2 -34 4 -42 5 -18 1 -8 67 15 92 18 19 88 27 98 11z m3103 -29
c-3 -10 -5 -4 -5 12 0 17 2 24 5 18 2 -7 2 -21 0 -30z m-3237 -10 c0 -17 -14
-43 -35 -68 -20 -23 -33 -46 -30 -56 9 -26 -24 -79 -48 -79 -48 0 -68 11 -61
34 4 11 15 27 25 34 9 6 23 29 29 50 18 53 45 79 118 111 1 1 2 -11 2 -26z
m-1885 -61 c-20 -57 -73 -258 -87 -330 -6 -32 -15 -51 -22 -49 -16 6 -13 25
27 172 19 72 42 159 52 195 19 72 38 105 43 76 2 -9 -4 -38 -13 -64z m1255 43
c0 -24 -5 -35 -15 -35 -18 0 -19 11 -3 45 15 33 18 32 18 -10z m2950 4 c0 -5
-7 -9 -15 -9 -9 0 -15 9 -15 21 0 18 2 19 15 9 8 -7 15 -16 15 -21z m-3150 7
c0 -2 -8 -10 -17 -17 -16 -13 -17 -12 -4 4 13 16 21 21 21 13z m2927 -15 c-1
-10 20 -26 61 -45 34 -16 62 -33 62 -37 0 -4 -34 6 -76 23 -42 16 -78 27 -80
25 -3 -2 35 -22 82 -43 48 -21 93 -45 101 -52 7 -7 13 -31 13 -52 l0 -38 -72
14 c-87 17 -78 16 -78 5 0 -5 22 -14 49 -21 68 -16 76 -41 21 -67 -45 -21 -54
-21 -92 0 l-38 21 -46 -40 c-53 -45 -74 -93 -74 -175 0 -42 -7 -68 -26 -103
-14 -25 -30 -49 -35 -52 -6 -4 -6 -11 2 -20 9 -11 9 -14 -1 -14 -7 0 -30 19
-52 42 -35 38 -43 58 -40 98 3 34 -30 109 -50 115 -11 4 -26 22 -34 40 -7 18
-19 35 -25 37 -8 3 -7 14 6 37 11 23 13 37 6 44 -12 12 -3 64 16 92 7 11 13
15 14 10 1 -6 5 6 9 25 7 27 5 37 -8 47 -26 19 3 33 58 28 37 -3 55 2 99 26
41 24 61 29 86 25 24 -5 34 -2 39 9 8 22 107 18 103 -4z m-432 -31 c10 -11 16
-20 13 -20 -3 0 -13 9 -23 20 -10 11 -16 20 -13 20 3 0 13 -9 23 -20z m-2235
-19 c0 -21 -13 -41 -26 -41 -17 0 -17 5 -4 31 11 20 30 26 30 10z m2140 -1 c0
-5 -7 -7 -15 -4 -8 4 -15 8 -15 10 0 2 7 4 15 4 8 0 15 -4 15 -10z m1649 -47
c-1 -49 -3 -53 -8 -23 -6 33 -3 80 5 80 2 0 3 -26 3 -57z m-1536 19 c21 -22
24 -31 15 -40 -9 -9 -16 -8 -30 5 -13 11 -32 16 -59 14 -31 -2 -39 1 -39 14 0
9 4 14 9 10 5 -3 13 -1 16 5 4 6 15 8 26 5 11 -4 19 -2 19 4 0 18 15 12 43
-17z m604 -4 c-3 -7 -5 -2 -5 12 0 14 2 19 5 13 2 -7 2 -19 0 -25z m-2423 -3
c-7 -16 -42 -30 -52 -20 -8 8 26 35 45 35 7 0 10 -6 7 -15z m2426 -76 c0 -27
-3 -48 -8 -45 -7 4 -4 96 4 96 2 0 4 -23 4 -51z m270 43 c0 -4 -8 -15 -19 -24
-17 -15 -18 -14 -18 8 0 17 5 24 18 24 11 0 19 -3 19 -8z m-2292 -22 c-13 -20
-28 -27 -28 -12 0 10 22 32 32 32 5 0 3 -9 -4 -20z m41 -26 c-6 -7 -15 -11
-21 -8 -5 3 -4 12 3 20 6 7 15 11 21 8 5 -3 4 -12 -3 -20z m-849 6 c0 -5 -2
-10 -4 -10 -3 0 -8 5 -11 10 -3 6 -1 10 4 10 6 0 11 -4 11 -10z m2118 -8 c2
-7 -2 -10 -12 -6 -9 3 -16 11 -16 16 0 13 23 5 28 -10z m1634 -6 c8 5 9 -1 5
-17 -4 -13 -7 -27 -7 -31 0 -5 -8 -8 -17 -7 -11 0 -13 3 -5 6 14 6 17 43 2 43
-5 0 -6 8 -2 18 6 16 7 16 10 -1 2 -9 8 -14 14 -11z m-715 -33 c-3 -10 -5 -2
-5 17 0 19 2 27 5 18 2 -10 2 -26 0 -35z m-832 7 c0 -29 -14 -34 -40 -14 -20
15 -20 15 0 30 25 19 40 13 40 -16z m1515 0 c0 -5 -2 -10 -4 -10 -3 0 -8 5
-11 10 -3 6 -1 10 4 10 6 0 11 -4 11 -10z m-880 -72 c0 -5 -5 -8 -11 -8 -5 0
-7 5 -4 10 3 6 1 10 -5 10 -6 0 -8 5 -4 11 6 11 23 -6 24 -23z m963 15 c-7 -2
-21 -2 -30 0 -10 3 -4 5 12 5 17 0 24 -2 18 -5z m-753 -48 c0 -17 -5 -25 -17
-24 -11 0 -13 3 -5 6 6 2 12 13 12 24 0 10 2 19 5 19 3 0 5 -11 5 -25z m110
-5 c0 -13 -7 -13 -31 1 -11 5 -17 14 -14 20 7 11 45 -7 45 -21z m-2577 -12
c17 -9 24 -38 8 -38 -4 0 -21 10 -37 22 -21 17 -26 18 -22 6 5 -12 2 -15 -13
-11 -10 3 -17 9 -14 13 2 3 -10 5 -28 3 -102 -13 -137 -14 -137 -4 0 6 17 11
38 12 20 1 48 4 62 9 29 8 117 1 143 -12z m3952 12 c-3 -5 -10 -10 -16 -10 -5
0 -9 5 -9 10 0 6 7 10 16 10 8 0 12 -4 9 -10z m-1660 -10 c3 -5 1 -10 -4 -10
-6 0 -11 5 -11 10 0 6 2 10 4 10 3 0 8 -4 11 -10z m-3025 -41 c16 -38 17 -86
3 -100 -16 -16 -30 -3 -38 34 -4 17 -11 37 -15 42 -11 14 7 55 23 55 8 0 20
-14 27 -31z m4420 -9 c0 -5 -5 -10 -11 -10 -5 0 -7 5 -4 10 3 6 8 10 11 10 2
0 4 -4 4 -10z m-1520 -23 c0 -7 16 -12 38 -13 20 -1 29 1 20 3 -10 3 -18 9
-18 14 0 5 38 9 85 8 47 0 85 -4 85 -8 0 -25 -32 -31 -177 -31 -145 0 -153 1
-153 19 0 18 7 20 60 20 39 -1 60 -5 60 -12z m-3429 -46 c-8 -5 -20 -7 -28 -4
-21 8 -15 13 15 13 20 0 23 -3 13 -9z m2599 -16 c7 -8 19 -15 26 -15 8 0 14
-4 14 -8 0 -11 -39 -47 -67 -61 -36 -18 -27 -5 12 19 42 26 43 32 10 50 -14 7
-25 17 -25 22 0 13 16 9 30 -7z m-2606 -34 c-5 -5 -21 -12 -35 -16 -19 -5 -26
-2 -26 9 0 10 6 14 16 11 9 -2 23 0 31 5 17 11 28 4 14 -9z m-764 3 c0 -18
-24 -44 -40 -44 -15 0 -20 7 -20 25 0 21 5 25 30 25 17 0 30 -3 30 -6z m1240
-16 c0 -36 -20 -98 -52 -163 -36 -74 -44 -83 -42 -47 2 55 4 63 14 57 6 -3 10
1 10 10 0 9 4 14 9 11 5 -3 11 2 14 12 2 9 8 26 12 37 7 20 6 20 -9 1 -9 -11
-16 -15 -16 -9 0 6 7 16 15 23 9 7 15 29 15 51 0 28 4 39 15 39 9 0 15 -9 15
-22z m-514 -57 c-9 -10 -28 -18 -41 -18 -18 0 -25 5 -25 18 0 16 8 19 42 19
40 0 40 -1 24 -19z m-1836 -62 c0 -15 -11 -51 -24 -80 -13 -30 -27 -70 -31
-89 -4 -19 -21 -64 -37 -100 -16 -36 -36 -83 -43 -105 -23 -72 -87 -195 -101
-195 -22 0 -28 28 -11 53 23 35 122 255 142 316 9 29 23 65 30 78 8 14 24 58
37 98 22 70 38 80 38 24z m1060 42 c0 -12 -20 -25 -27 -18 -7 7 6 27 18 27 5
0 9 -4 9 -9z m4187 -23 c-3 -8 -6 -5 -6 6 -1 11 2 17 5 13 3 -3 4 -12 1 -19z
m616 -140 c2 -64 0 -115 -5 -112 -4 3 -7 62 -7 132 2 151 6 142 12 -20z
m-2584 103 c108 -30 151 -59 260 -169 66 -68 117 -111 135 -116 15 -4 40 -18
55 -31 14 -14 45 -42 67 -63 29 -26 58 -42 93 -50 94 -22 141 -14 211 33 25
17 44 22 68 18 l32 -5 0 -62 c0 -33 3 -70 6 -81 4 -18 0 -21 -31 -23 -83 -6
-121 -35 -130 -103 -5 -33 -18 -63 -42 -95 -48 -62 -63 -118 -70 -249 -7 -144
17 -305 57 -386 16 -31 34 -86 41 -123 11 -67 28 -96 55 -96 18 0 18 -46 0
-81 -14 -27 -15 -205 -1 -264 12 -53 28 -86 36 -78 16 16 23 160 10 191 -10
24 -9 36 4 70 15 37 15 43 1 71 -9 16 -16 44 -16 61 0 27 3 30 29 30 28 0 29
-2 29 -45 0 -69 12 -122 38 -179 13 -28 24 -66 24 -84 0 -42 26 -105 40 -97 6
4 10 37 9 79 -1 51 3 82 15 105 12 23 18 60 19 122 2 73 5 89 17 89 30 0 40
23 40 90 0 61 3 71 35 112 74 94 97 225 76 423 -15 134 -27 178 -63 229 -24
33 -28 49 -28 103 0 61 -1 64 -32 83 -18 11 -45 20 -60 20 -31 0 -35 15 -13
44 8 10 17 38 21 62 l6 44 110 0 c168 0 216 18 251 93 14 31 20 37 31 28 21
-18 38 -93 34 -152 l-3 -53 50 -34 c28 -19 40 -31 28 -27 -13 3 -23 4 -23 0 0
-3 10 -10 23 -15 16 -6 17 -9 5 -9 -9 -1 -20 4 -23 9 -4 6 -16 8 -28 5 -20 -5
-20 -5 2 8 20 12 21 15 7 20 -9 4 -16 2 -16 -2 0 -5 -8 -12 -17 -15 -14 -6
-14 -3 3 15 16 19 17 21 2 16 -12 -4 -15 -2 -12 7 3 8 1 17 -5 20 -7 4 -8 29
-5 64 3 31 1 68 -4 82 l-10 25 -10 -25 c-10 -24 -10 -24 -10 7 1 19 5 30 11
26 6 -3 7 -1 3 6 -10 15 -29 3 -22 -15 3 -8 1 -14 -4 -14 -6 0 -9 -3 -9 -7 4
-22 -3 -32 -16 -26 -13 4 -15 0 -11 -21 3 -15 1 -24 -5 -21 -5 4 -6 11 -3 17
4 6 1 8 -7 6 -8 -3 -13 -10 -12 -16 2 -7 -4 -9 -13 -5 -13 5 -15 2 -7 -13 6
-10 9 -41 7 -69 -1 -27 0 -43 3 -35 12 32 43 34 43 3 0 -19 34 -52 81 -77 35
-18 35 -20 24 -52 -16 -48 -83 -119 -113 -121 -14 -1 -32 -9 -41 -18 -15 -15
-14 -17 2 -26 12 -7 16 -17 12 -30 -10 -32 12 -49 64 -49 25 0 57 -6 71 -13
22 -11 25 -20 26 -65 1 -29 -2 -55 -7 -58 -5 -3 -9 -16 -9 -30 0 -13 -11 -34
-25 -46 -19 -16 -22 -24 -13 -30 10 -5 8 -8 -4 -8 -18 0 -38 -28 -38 -53 0
-10 14 -14 47 -15 55 0 87 -30 73 -68 -14 -37 -9 -85 12 -97 10 -7 18 -17 18
-23 0 -6 7 -17 15 -24 10 -8 15 -37 17 -98 2 -63 6 -86 16 -84 8 1 12 -12 13
-40 1 -75 6 -93 38 -127 30 -32 31 -36 31 -128 l0 -94 113 2 112 2 3 -42 c4
-55 -11 -60 -170 -54 -144 6 -148 4 -148 -78 0 -32 -6 -47 -25 -65 -17 -15
-25 -34 -25 -56 0 -18 -3 -50 -6 -70 -6 -32 -11 -38 -30 -38 -21 0 -24 5 -24
41 0 33 -3 40 -16 35 -9 -3 -20 -6 -24 -6 -5 0 -8 -107 -7 -237 l2 -238 -23
-3 c-22 -3 -21 -5 13 -23 20 -11 40 -17 45 -14 6 4 10 33 10 65 0 62 7 74 35
64 14 -6 16 -17 12 -71 -6 -69 9 -99 43 -88 17 5 19 -2 22 -80 2 -48 2 -88 0
-90 -1 -1 -33 4 -70 12 -37 7 -112 20 -167 28 -71 10 -103 18 -110 30 -27 45
-33 48 -75 47 -24 -1 -50 -8 -58 -14 -12 -11 -16 -10 -20 0 -2 8 -18 29 -34
48 -28 31 -29 36 -15 52 29 34 57 102 57 142 0 30 -10 56 -35 95 -19 30 -41
55 -48 55 -7 0 -27 -16 -46 -35 -18 -19 -37 -35 -42 -35 -6 0 -32 -19 -58 -41
-54 -47 -105 -70 -171 -76 -43 -4 -46 -3 -62 29 -9 18 -18 49 -20 68 l-3 35
48 -3 c32 -3 56 1 72 12 23 15 25 23 25 85 0 83 -20 112 -41 59 l-13 -33 -5
61 c-4 40 -13 69 -25 82 -14 16 -16 27 -9 47 11 34 -7 133 -25 140 -19 7 -39
-21 -49 -70 -8 -39 -10 -40 -52 -43 -48 -4 -48 4 -8 -104 14 -36 23 -69 19
-72 -3 -3 -18 -6 -33 -6 -33 0 -37 -14 -30 -100 l6 -65 42 -3 c47 -3 46 -3 58
-117 3 -33 8 -72 11 -88 7 -33 -12 -36 -49 -7 -20 16 -40 20 -106 20 -82 0
-110 8 -178 50 -19 11 -35 15 -38 10 -8 -13 -78 -13 -92 1 -7 7 -33 7 -88 0
-43 -6 -93 -9 -110 -5 -33 6 -95 -17 -95 -35 0 -7 22 -21 40 -25 3 -1 13 -6
24 -12 15 -9 16 -14 5 -32 -11 -18 -69 -37 -69 -23 0 13 -83 31 -144 31 -55 0
-64 -3 -62 -17 1 -14 -8 -19 -39 -21 -110 -7 -198 -22 -213 -35 -27 -24 -105
-37 -127 -21 -12 9 -23 10 -36 4 -9 -6 -31 -7 -48 -4 -26 6 -32 3 -40 -18 -19
-50 -109 -100 -142 -80 -10 7 -26 12 -34 12 -8 0 -15 5 -15 10 0 25 -186 1
-203 -26 -4 -7 -22 -15 -40 -19 -17 -4 -51 -15 -74 -26 -24 -10 -47 -19 -53
-19 -5 0 -10 -4 -10 -9 0 -9 -30 -22 -60 -26 -8 -1 -23 -6 -33 -10 -10 -4 -21
-5 -24 -1 -4 3 1 6 11 6 9 0 14 5 11 10 -4 6 -16 8 -28 5 -12 -4 1 8 28 26 28
18 78 56 113 86 35 29 73 53 84 53 17 0 119 75 139 102 3 5 32 27 66 51 73 52
183 150 183 165 0 15 -9 20 -59 31 -37 8 -45 6 -70 -15 -16 -13 -41 -24 -57
-24 -15 0 -25 -2 -23 -5 7 -7 78 -18 117 -18 21 0 28 -3 20 -9 -17 -10 -81 -1
-193 27 -49 13 -116 27 -147 30 -40 5 -58 12 -58 21 0 17 86 20 92 3 2 -5 24
-15 48 -20 25 -5 54 -12 65 -14 11 -3 7 2 -10 10 -16 8 -41 14 -55 15 -24 0
-26 4 -25 45 0 29 4 45 13 45 6 0 12 7 12 15 0 8 4 15 9 15 6 0 8 8 6 18 -5
25 17 50 40 45 40 -9 65 -3 111 27 27 16 58 30 71 30 13 0 23 5 23 10 0 6 -4
10 -10 10 -5 0 -10 5 -10 10 0 6 14 10 30 10 23 0 30 4 30 20 0 11 12 26 29
35 22 11 28 20 24 34 -3 11 0 34 5 50 10 29 8 33 -35 71 -25 22 -63 45 -83 50
-21 6 -43 17 -50 25 -7 8 -22 15 -34 15 -25 1 -50 18 -59 43 -3 9 -10 17 -14
16 -18 -3 -24 2 -16 14 10 15 11 57 2 57 -4 0 -12 14 -18 31 -6 17 -15 28 -20
25 -5 -4 -12 -2 -16 3 -3 5 24 52 59 104 36 52 99 153 141 223 43 71 78 130
80 132 1 2 5 -4 9 -13 3 -9 2 -13 -4 -10 -14 9 -12 -8 4 -30 7 -10 11 -27 8
-37 -2 -10 1 -18 7 -18 7 0 19 -16 27 -35 8 -20 22 -39 32 -42 30 -11 44 -25
32 -33 -7 -4 7 -10 29 -14 26 -4 41 -12 41 -21 0 -7 5 -17 11 -21 7 -4 9 0 6
12 -22 72 -11 63 18 -16 56 -152 117 -303 132 -325 7 -11 13 -34 13 -52 0 -55
202 -443 230 -443 18 0 10 32 -31 124 -58 127 -109 278 -58 171 10 -22 19 -32
19 -22 0 19 15 23 25 6 4 -6 13 -8 19 -6 23 9 39 -11 39 -45 0 -18 3 -37 7
-43 4 -5 8 -32 8 -59 0 -29 6 -52 14 -57 10 -7 10 -9 1 -9 -7 0 -13 -4 -13 -9
0 -4 35 -11 77 -13 68 -5 79 -8 97 -31 15 -19 25 -24 36 -17 24 15 30 2 31
-73 1 -40 4 -58 6 -42 10 82 14 95 32 95 11 0 67 -22 126 -50 59 -27 115 -50
125 -50 10 0 21 -7 24 -16 3 -9 13 -14 21 -10 8 3 17 1 20 -4 10 -16 22 -11
28 10 3 13 14 20 30 20 33 0 43 16 18 29 -32 18 -108 14 -115 -5 -14 -36 -21
2 -22 117 -1 99 1 119 13 119 10 0 13 6 9 16 -3 8 3 27 14 43 16 20 22 47 25
108 3 48 1 84 -5 88 -6 3 -10 14 -10 24 0 18 -55 81 -71 81 -5 0 -9 8 -10 18
0 14 -2 14 -8 -3 -7 -17 -9 -15 -17 15 l-8 35 -7 -35 c-5 -25 -7 -13 -8 45 -1
86 -5 96 -38 114 -28 15 -31 14 -36 -6 -3 -10 -5 2 -6 27 -1 25 -10 59 -21 78
-11 18 -20 39 -20 47 0 23 -18 18 -26 -7 -9 -32 -22 -38 -56 -26 -21 7 -33 7
-44 -2 -12 -11 -19 -9 -42 13 -16 15 -35 27 -44 27 -9 0 -24 10 -32 22 -13 18
-24 21 -70 19 l-56 -1 10 25 c13 34 13 35 -5 35 -20 0 -19 17 3 29 9 6 13 11
9 11 -5 0 -1 10 7 22 9 12 16 34 17 48 0 23 1 23 9 5 7 -15 9 -10 9 23 1 30
-2 41 -11 36 -7 -4 -8 -3 -4 4 13 21 -17 96 -51 129 -18 17 -33 39 -33 48 0 9
-9 33 -20 55 -11 22 -20 50 -20 64 0 13 -6 26 -13 29 -20 7 -48 156 -51 270
-1 21 -8 42 -16 48 -12 8 -9 9 10 5 14 -3 19 -3 12 0 -6 3 -10 10 -6 15 7 12
-3 11 -27 -1 -13 -7 -19 -7 -19 0 0 5 5 10 10 10 6 0 10 7 10 15 0 8 20 23 44
34 54 24 62 37 71 126 8 85 28 152 68 227 26 50 35 59 70 69 34 9 117 55 117
65 0 1 -20 -6 -45 -17 -70 -31 -118 -12 -130 52 -6 32 -4 36 34 58 23 12 66
25 96 28 52 6 71 22 45 38 -5 3 -10 12 -10 18 0 15 120 7 189 -12z m1585 18
c-3 -5 -13 -9 -23 -9 -31 0 -43 -21 -23 -44 16 -18 16 -19 -1 -13 -32 12 -40
-4 -16 -29 27 -29 14 -31 -20 -3 -22 18 -23 21 -7 37 9 10 16 24 16 30 0 18
25 37 53 38 15 1 24 -2 21 -7z m-3099 -9 c-3 -5 -13 -10 -21 -10 -8 0 -14 5
-14 10 0 6 9 10 21 10 11 0 17 -4 14 -10z m-520 -10 c8 -13 -5 -13 -25 0 -13
8 -13 10 2 10 9 0 20 -4 23 -10z m4385 -10 c0 -17 -6 -20 -47 -18 -36 1 -40 2
-16 5 17 2 37 11 43 19 16 19 20 18 20 -6z m651 -22 c-3 -21 -6 -26 -9 -15 -3
17 3 47 11 47 2 0 1 -15 -2 -32z m89 22 c0 -5 -2 -10 -4 -10 -3 0 -8 5 -11 10
-3 6 -1 10 4 10 6 0 11 -4 11 -10z m-1030 -9 c0 -6 -11 -11 -25 -11 -14 0 -25
-4 -25 -9 0 -23 -29 -37 -69 -33 -46 5 -49 10 -23 38 13 14 35 20 80 22 39 2
62 -1 62 -7z m-1816 -10 c4 -5 -3 -7 -14 -4 -23 6 -26 13 -6 13 8 0 17 -4 20
-9z m-2304 -11 c0 -13 -11 -13 -30 0 -12 8 -11 10 8 10 12 0 22 -4 22 -10z
m520 0 c0 -5 -4 -10 -9 -10 -6 0 -13 5 -16 10 -3 6 1 10 9 10 9 0 16 -4 16
-10z m1855 -28 c-3 -3 -11 0 -18 7 -9 10 -8 11 6 5 10 -3 15 -9 12 -12z
m-2425 -8 c0 -8 -4 -12 -10 -9 -5 3 -10 10 -10 16 0 5 5 9 10 9 6 0 10 -7 10
-16z m3730 6 c0 -5 -15 -17 -32 -25 l-33 -16 30 25 c34 29 35 30 35 16z
m-1269 -17 c13 -16 12 -17 -3 -4 -17 13 -22 21 -14 21 2 0 10 -8 17 -17z
m-2491 -24 c0 -6 -4 -7 -10 -4 -5 3 -10 11 -10 16 0 6 5 7 10 4 6 -3 10 -11
10 -16z m570 7 c0 -2 -8 -10 -17 -17 -16 -13 -17 -12 -4 4 13 16 21 21 21 13z
m1961 -13 c13 -16 12 -17 -3 -4 -17 13 -22 21 -14 21 2 0 10 -8 17 -17z m1362
2 c-3 -9 -8 -14 -10 -11 -3 3 -2 9 2 15 9 16 15 13 8 -4z m-3391 -25 c2 -6 13
-12 26 -13 33 -2 27 -21 -19 -61 -34 -29 -47 -34 -73 -29 -17 3 -32 6 -33 7
-1 1 2 16 5 35 6 25 17 39 42 52 40 22 47 23 52 9z m573 -30 c3 -5 2 -10 -4
-10 -5 0 -13 5 -16 10 -3 6 -2 10 4 10 5 0 13 -4 16 -10z m1552 -40 c7 -8 13
-19 13 -23 0 -9 -25 16 -55 53 l-20 25 25 -20 c13 -11 30 -27 37 -35z m1201
21 c-13 -15 -25 -27 -27 -25 -4 4 39 54 47 54 2 0 -7 -13 -20 -29z m-4868 -58
c6 -32 20 -92 30 -133 133 -517 223 -965 207 -1026 -3 -11 -5 -2 -6 19 -1 37
-22 73 -35 60 -3 -4 -6 5 -6 18 0 13 -5 31 -11 39 -9 12 -10 11 -6 -8 3 -12 2
-20 -2 -17 -4 2 -8 31 -8 65 -1 72 -20 108 -59 108 -14 0 -30 5 -34 12 -5 7
-9 0 -12 -20 -4 -27 5 -97 27 -215 5 -27 4 -28 -10 -14 -18 17 -64 186 -65
232 0 15 -7 42 -16 60 l-17 31 -41 -47 -41 -47 -2 67 c-3 87 -10 113 -28 113
-8 0 -15 9 -15 19 0 12 -12 25 -30 33 -21 9 -30 20 -30 36 0 13 -4 21 -9 18
-5 -3 -11 1 -15 9 -3 10 3 17 21 21 20 6 31 2 45 -16 l19 -23 6 21 c8 33 16
27 38 -30 12 -29 25 -53 30 -53 6 0 16 18 23 40 11 32 12 55 3 114 -6 41 -15
79 -20 85 -5 6 -12 47 -15 91 -3 43 -11 84 -16 89 -6 6 -10 29 -10 52 0 24 -5
46 -11 49 -6 4 -8 14 -5 22 3 8 0 21 -8 29 -11 11 -12 22 -4 51 5 21 13 42 18
46 10 11 40 -20 40 -42 0 -10 8 -25 18 -34 18 -16 18 -15 14 13 -4 31 17 120
29 120 4 0 13 -26 19 -57z m2095 37 c3 -5 -3 -10 -14 -10 -12 0 -21 5 -21 10
0 6 6 10 14 10 8 0 18 -4 21 -10z m2735 -4 c0 -3 -4 -8 -10 -11 -5 -3 -10 -1
-10 4 0 6 5 11 10 11 6 0 10 -2 10 -4z m-55 -16 c-27 -12 -43 -12 -25 0 8 5
22 9 30 9 10 0 8 -3 -5 -9z m515 -20 c-23 -18 -50 -26 -50 -16 0 22 17 36 44
36 l31 0 -25 -20z m173 13 c-7 -2 -21 -2 -30 0 -10 3 -4 5 12 5 17 0 24 -2 18
-5z m-3436 -38 c-15 -14 -36 -25 -45 -25 -12 0 -9 7 13 25 40 33 69 33 32 0z
m3161 -2 c-10 -2 -26 -2 -35 0 -10 3 -2 5 17 5 19 0 27 -2 18 -5z m-484 -35
c16 -60 -1 -207 -17 -152 -9 30 -37 154 -37 165 0 5 11 9 24 9 16 0 26 -7 30
-22z m23 -20 c-3 -8 -6 -5 -6 6 -1 11 2 17 5 13 3 -3 4 -12 1 -19z m-2827 7
c0 -9 -86 -49 -112 -52 -61 -6 -16 29 57 46 51 12 55 12 55 6z m-547 -46 c5
-3 -11 -21 -34 -40 -28 -22 -41 -28 -36 -16 4 10 2 17 -6 17 -7 0 4 13 23 30
19 16 37 26 40 22 3 -4 9 -10 13 -13z m4410 -101 c2 -59 0 -105 -5 -102 -4 3
-8 56 -7 117 1 136 6 130 12 -15z m-697 96 c-3 -9 -6 -21 -6 -28 0 -6 -19 -22
-42 -35 -35 -19 -48 -21 -70 -12 -19 7 -26 15 -22 26 3 8 11 15 18 15 6 1 25
12 41 25 35 29 91 35 81 9z m-470 -31 c-10 -10 -19 5 -10 18 6 11 8 11 12 0 2
-7 1 -15 -2 -18z m31 5 c-3 -8 -6 -5 -6 6 -1 11 2 17 5 13 3 -3 4 -12 1 -19z
m533 3 c0 -11 -49 -21 -55 -11 -2 4 -2 10 2 14 10 9 53 7 53 -3z m-990 -25 c0
-31 -10 -56 -21 -56 -10 0 -12 63 -2 73 13 14 23 6 23 -17z m-2900 -16 c0 -5
-4 -10 -10 -10 -5 0 -10 5 -10 10 0 6 5 10 10 10 6 0 10 -4 10 -10z m204 1 c4
-5 -9 -22 -26 -37 l-33 -27 -3 23 c-5 34 46 67 62 41z m463 -33 c34 -23 34
-23 28 -83 -9 -89 -11 -92 -70 -119 -40 -18 -56 -31 -61 -50 -4 -17 -13 -26
-25 -26 -10 0 -19 2 -19 4 0 2 20 46 45 98 27 56 48 114 52 146 3 28 8 52 11
52 3 0 21 -10 39 -22z m2663 6 c0 -8 -4 -12 -10 -9 -5 3 -10 10 -10 16 0 5 5
9 10 9 6 0 10 -7 10 -16z m-3355 -16 c-4 -13 -13 -28 -21 -34 -8 -6 -14 -17
-14 -23 0 -17 -32 -10 -38 8 -3 10 0 12 12 8 11 -4 16 -2 14 6 -3 17 24 57 40
57 9 0 11 -7 7 -22z m577 -38 c-9 -28 -18 -46 -22 -40 -3 5 -25 7 -48 5 -24
-2 -42 1 -42 6 0 6 -9 7 -20 4 -11 -3 -20 -2 -20 3 0 5 37 23 83 40 45 17 83
31 84 31 0 1 -6 -22 -15 -49z m2932 34 c3 -8 2 -12 -4 -9 -6 3 -10 10 -10 16
0 14 7 11 14 -7z m-3964 -45 c0 -6 -4 -7 -10 -4 -5 3 -10 11 -10 16 0 6 5 7
10 4 6 -3 10 -11 10 -16z m1230 1 c8 -5 11 -10 5 -10 -5 0 -17 5 -25 10 -8 5
-10 10 -5 10 6 0 17 -5 25 -10z m-856 -56 c-36 -29 -59 -32 -43 -6 13 21 50
40 63 34 4 -3 -5 -15 -20 -28z m416 32 c0 -2 -11 -6 -25 -8 -13 -3 -22 -1 -19
3 5 9 44 13 44 5z m3120 -22 c0 -2 -13 -4 -30 -4 -16 0 -30 4 -30 8 0 5 14 7
30 4 17 -2 30 -6 30 -8z m575 -20 c-10 -8 -20 -12 -23 -10 -7 8 23 34 32 28 5
-3 1 -11 -9 -18z m-3135 -6 c0 -6 -6 -5 -15 2 -8 7 -15 14 -15 16 0 2 7 1 15
-2 8 -4 15 -11 15 -16z m40 -69 c0 -11 -7 -19 -17 -19 -10 0 -31 -7 -46 -15
-26 -13 -28 -13 -25 2 2 10 14 23 26 29 13 6 29 17 34 22 15 15 28 6 28 -19z
m-1122 3 c4 -12 -75 -102 -89 -102 -20 0 -7 39 27 79 35 40 54 47 62 23z m968
-3 c3 -6 1 -16 -5 -22 -8 -8 -11 -8 -11 1 0 17 -14 15 -40 -8 -13 -11 -29 -20
-37 -20 -7 0 -25 -7 -38 -16 -24 -15 -25 -15 -25 3 0 15 16 27 58 46 62 29 87
33 98 16z m-2311 -28 c3 -5 1 -12 -5 -16 -5 -3 -10 1 -10 9 0 18 6 21 15 7z
m5345 -101 c-4 -60 -7 -76 -8 -43 -1 28 -6 55 -12 58 -5 3 -10 1 -10 -5 0 -7
-22 -10 -62 -8 -55 3 -63 6 -63 23 0 14 12 24 41 35 23 8 47 20 55 26 17 14
52 23 59 15 3 -3 3 -49 0 -101z m-3410 65 c23 -13 15 -14 -89 -15 -125 0 -141
12 -28 21 40 3 77 6 82 7 6 1 21 -5 35 -13z m-1907 -7 c-6 -7 -13 -20 -16 -28
-3 -9 -6 -3 -6 13 -1 19 4 27 15 27 12 0 14 -4 7 -12z m4505 -15 c-4 -21 -27
-27 -48 -13 -13 9 -13 11 0 20 25 16 52 12 48 -7z m-4491 -25 c-3 -7 -5 -2 -5
12 0 14 2 19 5 13 2 -7 2 -19 0 -25z m5362 -50 c-2 -78 -2 -80 -9 -33 -7 45
-4 115 6 115 2 0 3 -37 3 -82z m-2879 16 c13 -32 13 -54 0 -54 -13 0 -42 58
-35 70 11 17 25 11 35 -16z m130 1 c0 -15 -14 -40 -35 -63 -29 -31 -36 -34
-45 -22 -5 8 -10 29 -10 46 0 35 29 63 68 63 17 1 22 -5 22 -24z m-802 0 c67
0 122 -2 122 -5 -1 -9 -49 -95 -50 -88 0 4 -15 1 -34 -7 -47 -20 -159 0 -214
38 -21 15 -42 27 -48 27 -5 0 -22 12 -39 26 l-30 25 85 -8 c47 -4 140 -8 208
-8z m302 3 c0 -21 -73 -112 -100 -125 -21 -11 -26 -10 -31 5 -6 14 -9 13 -18
-8 -10 -22 -11 -20 -5 15 3 22 14 59 24 83 l19 42 55 0 c38 0 56 -4 56 -12z
m104 -7 c17 -10 51 -22 76 -26 25 -3 60 -11 78 -17 23 -7 37 -7 44 0 12 12 38
5 38 -11 0 -6 8 -19 17 -29 11 -12 13 -22 7 -26 -5 -4 -24 -25 -41 -47 -20
-26 -47 -46 -76 -57 -47 -17 -57 -15 -57 11 0 9 -9 27 -20 41 -15 19 -22 22
-29 12 -4 -8 -10 -12 -12 -10 -10 8 -68 -49 -74 -72 -5 -20 1 -34 27 -63 31
-34 40 -38 126 -53 94 -15 143 -10 180 19 25 19 17 6 -122 -232 -52 -90 -178
-278 -216 -324 -10 -12 -50 -17 -50 -6 0 5 6 9 14 9 22 0 -3 59 -34 79 -14 8
-29 21 -33 28 -4 7 -13 13 -20 13 -15 0 -117 104 -117 119 0 6 -7 11 -15 11
-8 0 -15 7 -15 15 0 8 -7 15 -15 15 -8 0 -15 4 -15 9 0 5 7 11 15 15 8 3 15
15 15 28 0 17 -3 19 -12 10 -7 -7 -18 -12 -26 -12 -10 0 -6 11 12 35 l27 34
-21 21 c-11 11 -20 16 -20 10 0 -5 -4 -10 -9 -10 -6 0 0 18 12 40 20 38 22 39
29 19 5 -12 6 -24 3 -27 -3 -3 -5 0 -5 7 0 7 -4 9 -10 6 -12 -8 -12 -16 0 -35
9 -13 11 -13 21 0 9 13 10 12 5 -2 -3 -10 -1 -18 4 -18 20 0 19 21 -1 59 -18
36 -19 45 -9 78 17 52 29 65 54 58 13 -4 17 -3 9 2 -9 7 7 27 56 70 63 57 115
135 135 206 7 22 31 22 70 -2z m-1054 -11 c0 -22 -26 -27 -48 -10 -14 12 -18
20 -10 22 17 6 58 -3 58 -12z m3333 3 c12 -12 -15 -33 -43 -33 -15 0 -33 6
-39 14 -10 12 -8 15 11 19 38 7 64 7 71 0z m1504 -35 c-3 -7 -5 -2 -5 12 0 14
2 19 5 13 2 -7 2 -19 0 -25z m-863 -52 c-4 -11 -11 -32 -17 -46 l-10 -25 -7
26 c-4 14 -12 35 -19 46 -9 19 -8 22 12 25 35 6 48 -2 41 -26z m869 -13 c-8
-52 -13 -54 -13 -5 0 23 4 42 9 42 6 0 7 -17 4 -37z m-1510 13 c7 -18 -1 -26
-29 -26 -25 0 -39 14 -29 30 9 15 52 12 58 -4z m805 -278 c-2 -235 -2 -238 -8
-83 l-5 159 -51 -3 c-29 -1 -55 2 -58 8 -8 12 20 41 40 41 8 0 14 4 14 10 0
14 42 50 52 44 4 -3 8 11 8 30 0 20 2 36 5 36 3 0 4 -109 3 -242z m-3346 200
c-7 -7 -12 -8 -12 -2 0 14 12 26 19 19 2 -3 -1 -11 -7 -17z m285 -20 c-3 -8
-6 -5 -6 6 -1 11 2 17 5 13 3 -3 4 -12 1 -19z m2268 1 c9 -14 2 -20 -31 -22
-20 -1 -29 3 -32 16 -3 13 3 17 27 17 16 0 33 -5 36 -11z m-2655 -29 c-8 -6
-22 -10 -30 -10 -8 0 -4 6 10 13 27 15 44 12 20 -3z m-670 0 c0 -5 -5 -10 -11
-10 -5 0 -7 5 -4 10 3 6 8 10 11 10 2 0 4 -4 4 -10z m-28 -32 c-7 -7 -12 -23
-12 -36 0 -23 -56 -112 -71 -112 -31 0 -7 67 44 123 19 20 38 37 43 37 4 0 3
-5 -4 -12z m3382 -38 c12 -12 -35 -30 -75 -30 -31 0 -38 17 -16 39 13 13 74 7
91 -9z m-2904 -7 c45 -11 87 -13 138 -9 l72 7 -16 -43 c-10 -24 -28 -55 -41
-69 -23 -25 -27 -26 -62 -15 -67 20 -180 89 -189 116 -8 22 -7 26 12 27 11 0
50 -6 86 -14z m3720 -197 c-12 -12 -13 42 -2 124 7 55 7 55 10 -29 2 -49 -1
-88 -8 -95z m-875 104 c0 -18 -33 -26 -47 -12 -6 6 -7 15 -3 22 10 16 50 8 50
-10z m-1915 -4 c0 -8 -7 -16 -15 -20 -13 -4 -14 -2 -5 14 13 23 20 26 20 6z
m2576 0 c3 -8 0 -25 -7 -38 -7 -13 -15 -83 -19 -163 l-7 -140 -1 127 c-1 72
-6 129 -12 133 -5 3 -10 14 -10 24 0 10 -9 26 -20 36 -30 27 -25 35 25 35 30
0 47 -5 51 -14z m-5246 -21 c-13 -14 -25 -23 -27 -21 -6 6 30 46 41 46 5 0 -1
-11 -14 -25z m6111 -40 l-9 -40 -1 37 c-1 41 11 84 17 58 1 -9 -2 -33 -7 -55z
m-4971 35 c13 -8 13 -10 -2 -10 -9 0 -20 5 -23 10 -8 13 5 13 25 0z m5107 -62
c-2 -13 -4 -5 -4 17 -1 22 1 32 4 23 2 -10 2 -28 0 -40z m-5298 -4 c3 -16 1
-17 -13 -5 -19 16 -21 34 -3 29 6 -3 14 -13 16 -24z m151 18 c0 -12 -27 -34
-73 -60 -45 -26 -44 -26 -44 -7 0 8 6 15 14 15 7 0 13 4 13 9 0 5 14 12 31 16
17 4 33 13 36 21 6 15 23 19 23 6z m3485 -3 c10 -15 -1 -23 -20 -15 -9 3 -13
10 -10 16 8 13 22 13 30 -1z m-2635 -28 c0 -9 -6 -25 -13 -36 -11 -14 -16 -15
-22 -5 -6 9 -4 11 5 5 8 -5 11 -4 6 3 -3 6 -2 13 4 17 5 3 10 13 10 21 0 8 -5
12 -10 9 -6 -4 -8 -10 -5 -15 3 -4 -1 -13 -9 -19 -8 -7 -12 -21 -9 -31 4 -15
0 -20 -16 -20 -12 0 -21 6 -21 15 0 9 6 12 17 8 12 -5 14 -3 8 7 -5 8 -1 18
10 27 11 7 15 13 11 13 -5 0 -3 7 4 15 15 18 30 11 30 -14z m3191 11 c-7 -2
-18 1 -23 6 -8 8 -4 9 13 5 13 -4 18 -8 10 -11z m-3301 5 c0 -2 -10 -12 -22
-23 l-23 -19 19 23 c18 21 26 27 26 19z m3465 -7 c-3 -5 -10 -10 -16 -10 -5 0
-9 5 -9 10 0 6 7 10 16 10 8 0 12 -4 9 -10z m-218 -22 c-3 -8 -6 -5 -6 6 -1
11 2 17 5 13 3 -3 4 -12 1 -19z m270 -90 c-2 -18 -4 -4 -4 32 0 36 2 50 4 33
2 -18 2 -48 0 -65z m-4389 -29 c1 -55 -2 -99 -7 -99 -16 0 -42 48 -30 56 8 5
9 30 5 80 -6 66 -5 72 11 68 16 -4 18 -19 21 -105z m805 86 c-3 -9 -8 -14 -10
-11 -3 3 -2 9 2 15 9 16 15 13 8 -4z m2827 -5 c11 -7 5 -10 -22 -10 -21 0 -38
5 -38 10 0 13 40 13 60 0z m54 -9 c4 -5 -3 -7 -14 -4 -23 6 -26 13 -6 13 8 0
17 -4 20 -9z m-2904 -5 c0 -2 -8 -10 -17 -17 -16 -13 -17 -12 -4 4 13 16 21
21 21 13z m-1323 -28 c-3 -8 -6 -5 -6 6 -1 11 2 17 5 13 3 -3 4 -12 1 -19z
m1433 19 c0 -2 -12 -14 -27 -28 l-28 -24 24 28 c23 25 31 32 31 24z m-474 -62
c55 -26 74 -40 74 -55 0 -24 -26 -26 -57 -5 -19 14 -23 13 -38 -1 -9 -9 -17
-15 -19 -13 -1 2 -10 17 -20 32 -14 23 -23 28 -42 23 -20 -5 -24 -3 -24 17 0
49 27 49 126 2z m-936 -39 c0 -51 -6 -43 -14 19 -4 34 -3 45 4 35 5 -8 10 -33
10 -54z m147 32 c-3 -8 -6 -5 -6 6 -1 11 2 17 5 13 3 -3 4 -12 1 -19z m476
-50 c8 -24 18 -56 23 -72 5 -15 27 -41 49 -57 38 -28 45 -29 155 -30 148 -1
143 -2 136 17 -4 11 1 18 14 21 24 7 27 23 3 23 -12 0 -6 8 17 23 31 22 35 22
52 8 10 -9 26 -16 35 -16 13 0 15 -14 14 -99 -2 -101 -7 -128 -21 -106 -5 8
-17 6 -45 -9 -21 -11 -42 -18 -46 -15 -13 7 -49 -15 -49 -29 0 -7 -14 -23 -30
-36 -17 -12 -29 -30 -28 -39 2 -11 -5 -18 -19 -20 -31 -5 -32 -53 -2 -67 23
-11 58 -100 59 -147 0 -23 4 -28 25 -28 25 0 25 -1 25 -88 0 -97 12 -120 62
-126 13 -1 28 -5 33 -8 6 -3 25 -3 43 -1 22 4 32 11 33 24 1 11 3 28 4 39 1
11 3 25 4 31 0 7 10 0 22 -15 12 -15 17 -31 12 -38 -4 -7 -10 -35 -13 -63 -5
-49 -5 -50 -40 -50 -26 0 -37 5 -45 22 -8 19 -12 15 -30 -40 -12 -37 -26 -63
-35 -63 -8 -1 -30 -2 -47 -3 -31 -1 -33 -3 -33 -40 l0 -39 -40 5 -40 6 0 -47
c0 -26 -5 -56 -10 -67 -8 -13 -7 -19 0 -19 6 0 8 -5 5 -10 -4 -7 -17 -3 -33 8
-39 28 -50 29 -106 17 l-51 -11 -6 -85 c-6 -79 -26 -175 -28 -136 -1 11 -9 17
-25 17 -21 0 -24 5 -28 63 -3 35 -14 78 -24 97 -12 24 -18 57 -19 103 0 49 -4
70 -15 77 -35 22 37 9 77 -14 24 -14 45 -21 48 -16 7 11 -5 42 -24 60 -44 42
-46 52 -46 350 -1 198 -5 298 -14 328 -16 57 -23 354 -9 410 6 23 16 42 23 42
8 0 20 -19 28 -42z m510 35 c-7 -2 -19 -2 -25 0 -7 3 -2 5 12 5 14 0 19 -2 13
-5z m-976 -35 c-3 -8 -6 -5 -6 6 -1 11 2 17 5 13 3 -3 4 -12 1 -19z m1125 5
c-6 -2 -10 -9 -7 -14 4 -5 -1 -6 -9 -3 -20 8 -11 24 12 23 11 0 12 -2 4 -6z
m3678 -89 l0 -85 -27 3 c-28 3 -28 4 -28 77 0 58 3 75 15 78 9 3 11 1 4 -4 -9
-7 -11 -29 -5 -80 0 -7 9 -13 19 -12 10 0 12 3 5 6 -7 2 -13 19 -12 36 1 31 1
31 9 7 7 -21 8 -19 9 18 2 79 11 43 11 -44z m-3790 36 c-8 -6 -22 -10 -30 -9
-9 0 -5 6 10 14 27 14 44 10 20 -5z m-652 -19 c3 -8 -1 -12 -9 -9 -8 3 -19 -4
-26 -16 -11 -20 -12 -19 -13 12 0 29 3 33 22 30 12 -2 23 -9 26 -17z m599 3
c-3 -3 -12 -4 -19 -1 -8 3 -5 6 6 6 11 1 17 -2 13 -5z m4000 -26 c-3 -7 -5 -2
-5 12 0 14 2 19 5 13 2 -7 2 -19 0 -25z m-5072 -113 c7 -49 19 -111 28 -137
13 -40 13 -48 1 -48 -7 0 -16 10 -18 23 -17 89 -40 229 -43 262 -6 75 18 -2
32 -100z m122 103 c-3 -7 -5 -2 -5 12 0 14 2 19 5 13 2 -7 2 -19 0 -25z m3920
-74 c-5 -73 -23 -124 -36 -108 -14 17 -31 91 -31 137 0 42 2 46 28 49 15 2 31
2 36 -1 5 -2 6 -37 3 -77z m-3910 24 c-3 -7 -5 -2 -5 12 0 14 2 19 5 13 2 -7
2 -19 0 -25z m49 -328 c9 -63 14 -131 12 -150 -3 -23 -5 -14 -6 28 -1 36 -6
62 -13 62 -6 0 -8 8 -4 20 4 13 0 23 -14 32 -13 8 -21 23 -21 40 0 16 -4 28
-10 28 -5 0 -10 17 -9 38 1 33 2 34 9 12 6 -18 8 -5 7 43 -1 37 -5 67 -9 67
-4 0 -8 12 -8 26 0 14 4 23 10 19 6 -4 11 6 11 22 1 15 8 -17 15 -72 7 -55 21
-152 30 -215z m182 263 c24 -61 32 -112 31 -193 -1 -76 -25 -217 -28 -162 0
12 -5 22 -9 22 -16 0 -34 132 -35 257 -2 109 0 120 14 112 9 -4 21 -21 27 -36z
m2020 22 c-3 -3 -9 2 -12 12 -6 14 -5 15 5 6 7 -7 10 -15 7 -18z m9 -37 c-3
-8 -6 -5 -6 6 -1 11 2 17 5 13 3 -3 4 -12 1 -19z m-647 6 c0 0 -8 -8 -18 -17
-16 -15 -18 -15 -18 1 0 10 8 18 18 18 10 0 18 -1 18 -2z m-639 -67 c-10 -9
-11 -8 -5 6 3 10 9 15 12 12 3 -3 0 -11 -7 -18z m3669 -23 c0 -25 -4 -43 -8
-40 -7 4 -4 86 4 86 2 0 4 -21 4 -46z m140 -19 c0 -45 -4 -65 -12 -65 -9 0
-12 16 -10 52 6 99 22 109 22 13z m-2503 33 c-3 -8 -6 -5 -6 6 -1 11 2 17 5
13 3 -3 4 -12 1 -19z m-656 -74 c-11 -15 -21 -24 -21 -20 0 10 34 55 39 51 2
-2 -6 -16 -18 -31z m721 -68 c10 -21 17 -40 14 -43 -5 -5 -51 92 -60 127 -4
16 0 13 11 -10 9 -19 25 -52 35 -74z m-1402 14 c0 -5 -4 -10 -10 -10 -5 0 -10
5 -10 10 0 6 5 10 10 10 6 0 10 -4 10 -10z m-1191 -52 c-6 -10 -14 -16 -19
-13 -5 3 -12 0 -16 -6 -4 -8 -3 -9 4 -5 7 4 12 5 12 1 0 -5 -47 -83 -56 -94
-2 -2 -12 2 -21 10 -16 13 -17 12 -4 -3 11 -15 11 -21 0 -35 -27 -34 -59 -64
-59 -55 0 5 -9 13 -19 18 -18 8 -12 17 55 89 41 44 85 92 97 107 23 29 43 18
26 -14z m2645 -165 c5 -17 3 -23 -7 -23 -17 0 -71 136 -60 153 6 11 50 -73 67
-130z m3583 -40 c-3 -10 -5 -4 -5 12 0 17 2 24 5 18 2 -7 2 -21 0 -30z m-6427
13 c0 -2 -8 -10 -17 -17 -16 -13 -17 -12 -4 4 13 16 21 21 21 13z m1430 -23
c0 -18 -27 -16 -33 1 -4 10 0 14 14 13 10 -1 19 -7 19 -14z m-913 -25 c-3 -7
-5 -2 -5 12 0 14 2 19 5 13 2 -7 2 -19 0 -25z m4663 22 c0 -5 -4 -10 -10 -10
-5 0 -10 5 -10 10 0 6 5 10 10 10 6 0 10 -4 10 -10z m-233 -176 c-6 -160 -17
-207 -17 -73 0 92 10 219 17 219 3 0 3 -66 0 -146z m-1470 -68 c-4 -9 -11 -16
-17 -16 -11 0 -14 33 -3 44 11 10 26 -11 20 -28z m-2911 -6 c11 0 42 -14 68
-30 44 -29 47 -32 33 -48 -12 -13 -17 -54 -23 -179 -6 -151 -8 -160 -24 -145
-16 17 -26 48 -51 162 -15 71 -25 90 -49 90 -45 0 -87 101 -65 154 6 15 5 17
-5 11 -8 -5 -11 -4 -6 3 5 8 20 7 54 -3 26 -8 56 -15 68 -15z m4314 9 c12 -9
12 -10 -4 -5 -11 4 -23 1 -28 -6 -6 -10 -8 -8 -8 5 0 19 18 22 40 6z m-2806
-32 c4 -19 3 -26 -4 -22 -5 3 -10 18 -10 32 0 32 5 28 14 -10z m-224 -5 c7 2
15 -3 17 -9 3 -7 -2 -13 -9 -13 -17 0 -38 20 -38 35 0 5 4 4 9 -3 4 -7 14 -12
21 -10z m64 -7 c-7 -16 -24 -21 -24 -6 0 8 7 13 27 20 1 1 0 -6 -3 -14z m-98
-47 c4 -5 -6 -8 -22 -6 -15 2 -29 8 -31 14 -5 14 44 6 53 -8z m4004 -28 c12
-16 18 -30 13 -30 -10 0 -73 65 -73 74 0 14 40 -16 60 -44z m-930 -29 c0 -51
-2 -59 -17 -56 -10 2 -22 4 -26 4 -5 1 -7 16 -5 34 2 23 8 32 21 31 12 -1 17
5 17 22 0 13 2 24 5 24 3 0 5 -27 5 -59z m-3032 13 c-10 -10 -28 6 -28 24 0
15 1 15 17 -1 9 -9 14 -19 11 -23z m2519 20 c-3 -3 -12 -4 -19 -1 -8 3 -5 6 6
6 11 1 17 -2 13 -5z m579 -103 c5 -18 4 -23 -7 -19 -9 3 -15 22 -16 54 -1 42
0 45 7 19 5 -16 12 -41 16 -54z m-586 45 c0 -3 -4 -8 -10 -11 -5 -3 -10 -1
-10 4 0 6 5 11 10 11 6 0 10 -2 10 -4z m-3070 -146 c0 -5 -2 -10 -4 -10 -3 0
-8 5 -11 10 -3 6 -1 10 4 10 6 0 11 -4 11 -10z m5582 -67 c-73 -15 -90 -14
-77 6 3 6 37 11 78 10 l72 -1 -73 -15z m246 10 c-21 -2 -55 -2 -75 0 -21 2 -4
4 37 4 41 0 58 -2 38 -4z m-3033 -13 c-3 -5 -12 -10 -18 -10 -7 0 -6 4 3 10
19 12 23 12 15 0z m1137 -32 c2 -18 2 -67 -1 -108 l-6 -75 -35 -3 c-19 -2 -41
-8 -48 -14 -7 -6 -14 -9 -15 -7 -2 2 1 54 6 116 10 119 10 119 68 122 22 1 27
-4 31 -31z m-4038 14 c3 -5 -1 -9 -9 -9 -8 0 -12 4 -9 9 3 4 7 8 9 8 2 0 6 -4
9 -8z m3861 -102 c0 -89 -2 -100 -17 -100 -16 0 -18 11 -18 94 0 89 3 101 30
105 3 1 5 -44 5 -99z m-1875 62 c0 -12 -28 -48 -33 -42 -8 8 11 50 23 50 5 0
10 -4 10 -8z m-2068 -35 c-26 -28 -28 -39 -5 -30 11 4 14 3 9 -5 -4 -7 -2 -12
3 -12 6 0 11 -4 11 -10 0 -5 -17 -7 -39 -4 -21 3 -41 2 -44 -3 -3 -4 5 -9 16
-9 12 -1 32 -5 43 -9 18 -5 24 -1 32 22 9 23 11 10 11 -68 1 -76 -2 -98 -13
-102 -20 -8 -32 -73 -17 -91 8 -10 7 -19 -7 -37 -10 -13 -35 -59 -56 -101 -20
-43 -39 -78 -42 -78 -5 0 -4 6 11 58 11 37 -13 25 -35 -18 -21 -41 -32 -45
-80 -31 -17 5 -33 2 -51 -10 -14 -10 -29 -15 -35 -11 -15 11 -16 34 -2 44 9 6
10 10 2 16 -6 4 -14 25 -17 47 -5 34 -2 45 17 68 13 15 28 27 35 27 6 0 11 4
11 9 0 5 25 9 56 10 56 0 82 9 55 19 -9 3 -4 9 15 17 l29 12 -47 7 c-47 7 -48
8 -48 44 0 66 28 131 57 132 4 1 37 27 73 60 67 61 90 77 52 37z m228 -34 c0
-9 -8 -13 -22 -11 -17 2 -24 11 -26 31 -3 28 -3 28 22 12 14 -10 26 -24 26
-32z m4431 16 c20 -20 20 -22 5 -31 -19 -11 -56 15 -56 39 0 20 27 16 51 -8z
m-1361 -15 c0 -17 -22 -14 -28 4 -2 7 3 12 12 12 9 0 16 -7 16 -16z m-3070
-85 c0 -43 -18 -59 -63 -55 -23 1 -52 -1 -64 -5 -25 -9 -32 3 -26 46 4 29 6
30 53 27 27 -2 57 1 67 6 22 13 33 7 33 -19z m3345 10 c12 -19 -5 -23 -22 -6
-16 16 -16 17 -1 17 9 0 20 -5 23 -11z m1352 -66 c38 -18 53 -47 35 -65 -7 -7
-18 -2 -34 16 -13 15 -39 31 -58 35 -23 4 -36 13 -38 25 -3 16 1 18 26 13 17
-4 48 -14 69 -24z m-3787 -8 c0 -8 -12 -17 -27 -21 -16 -3 -32 -7 -38 -8 -5
-2 -20 1 -33 5 -14 5 -40 5 -65 -2 -79 -20 -92 -19 -32 1 54 19 132 36 178 39
9 0 17 -6 17 -14z m835 -14 c-3 -12 -15 -21 -26 -21 -24 0 -24 5 3 30 25 23
33 20 23 -9z m1912 -13 c-3 -8 -6 -5 -6 6 -1 11 2 17 5 13 3 -3 4 -12 1 -19z
m516 5 c-7 -2 -19 -2 -25 0 -7 3 -2 5 12 5 14 0 19 -2 13 -5z m-306 -25 c-3
-8 -6 -5 -6 6 -1 11 2 17 5 13 3 -3 4 -12 1 -19z m-3266 -27 c-24 -10 -50 -26
-57 -36 -11 -15 -16 -16 -29 -5 -24 20 -18 26 38 42 72 21 101 21 48 -1z
m4197 -37 c-10 -10 -28 6 -28 24 0 15 1 15 17 -1 9 -9 14 -19 11 -23z m-4338
-34 c0 -24 -6 -25 -26 -6 -19 20 -18 26 6 26 13 0 20 -7 20 -20z m-1030 5 c0
-7 -71 -139 -81 -149 -6 -6 -13 -6 -20 1 -8 8 -8 25 2 63 11 43 19 55 49 70
36 20 50 24 50 15z m900 -62 c0 -13 -3 -13 -15 -3 -8 7 -12 16 -9 21 8 13 24
1 24 -18z m-1020 7 c0 -5 -4 -10 -10 -10 -5 0 -10 -5 -10 -11 0 -16 -26 -39
-44 -39 -9 0 -16 -5 -16 -12 0 -6 -3 -8 -7 -4 -10 10 27 74 46 79 29 8 41 7
41 -3z m3184 -70 c39 -29 74 -70 60 -70 -4 0 -16 8 -27 18 -11 9 -17 11 -13 4
7 -11 4 -11 -13 0 -12 7 -17 14 -11 16 6 2 8 8 5 12 -3 5 -12 7 -20 3 -11 -4
-13 -1 -8 13 5 13 3 15 -7 9 -8 -5 -11 -4 -6 3 3 5 0 13 -6 15 -7 3 -8 6 -3 6
6 0 27 -13 49 -29z m-2507 -5 c0 -8 -4 -15 -9 -15 -10 0 -11 14 -1 23 9 10 10
9 10 -8z m-37 -66 c0 -5 -9 -9 -20 -9 -13 0 -18 5 -14 14 6 15 34 11 34 -5z
m530 -99 c22 -14 3 -25 -69 -39 -87 -17 -103 0 -24 27 70 24 74 24 93 12z
m115 -23 c11 -17 13 -37 9 -70 -4 -26 -10 -47 -14 -47 -5 0 -6 18 -3 40 4 27
0 47 -11 64 -19 29 -20 36 -6 36 5 0 16 -10 25 -23z m4625 -22 c7 -8 8 -15 2
-15 -5 0 -15 7 -22 15 -7 8 -8 15 -2 15 5 0 15 -7 22 -15z m-5050 -55 c0 -5
-2 -10 -4 -10 -3 0 -8 5 -11 10 -3 6 -1 10 4 10 6 0 11 -4 11 -10z m-82 -43
c9 -10 1 -15 -36 -23 l-46 -11 30 23 c34 28 38 28 52 11z m-116 -59 c-9 -9
-15 -9 -24 0 -9 9 -7 12 12 12 19 0 21 -3 12 -12z m-65 -33 c21 -15 38 -55 23
-55 -5 0 -16 10 -24 21 -11 16 -21 20 -40 15 -25 -6 -26 -6 -9 14 21 24 23 24
50 5z m-103 -87 c27 -38 19 -57 -9 -26 -15 16 -31 25 -40 22 -8 -4 -15 -2 -15
3 0 30 44 31 64 1z m1089 -440 c-16 -28 -26 -33 -62 -36 -59 -4 -75 2 -61 27
6 13 27 23 62 29 84 15 82 16 61 -20z m782 22 c-3 -5 -16 -10 -28 -9 -20 1
-20 2 3 9 14 4 26 8 28 9 2 1 0 -3 -3 -9z m-1072 -115 c24 4 21 -5 -17 -50
l-34 -40 0 35 c0 51 7 73 21 62 7 -5 20 -8 30 -7z m-332 -19 c3 -33 -5 -63
-24 -83 -26 -29 -31 -24 -18 23 8 28 7 40 -1 45 -6 4 -8 14 -5 22 7 17 46 12
48 -7z m929 -90 c0 -2 -8 -10 -17 -17 -16 -13 -17 -12 -4 4 13 16 21 21 21 13z"/>
<path d="M5575 6420 c-3 -5 -1 -10 4 -10 6 0 11 5 11 10 0 6 -2 10 -4 10 -3 0
-8 -4 -11 -10z"/>
<path d="M2670 6610 c0 -5 5 -10 10 -10 6 0 10 5 10 10 0 6 -4 10 -10 10 -5 0
-10 -4 -10 -10z"/>
<path d="M2890 6281 c0 -5 7 -12 16 -15 14 -5 15 -4 4 9 -14 17 -20 19 -20 6z"/>
<path d="M5680 5966 c0 -9 5 -16 10 -16 6 0 10 4 10 9 0 6 -4 13 -10 16 -5 3
-10 -1 -10 -9z"/>
<path d="M5820 5660 c0 -5 5 -10 11 -10 5 0 7 5 4 10 -3 6 -8 10 -11 10 -2 0
-4 -4 -4 -10z"/>
<path d="M6195 5280 c-3 -5 -3 -37 1 -70 5 -43 3 -64 -7 -76 -9 -11 -10 -17
-1 -23 7 -4 10 -54 9 -156 -2 -128 0 -150 13 -150 8 0 15 6 14 13 -1 6 -2 116
-2 242 -2 211 -7 253 -27 220z"/>
<path d="M6017 5086 c-4 -10 -3 -15 3 -11 6 3 10 -2 11 -12 0 -10 3 -13 5 -6
3 7 1 20 -4 29 -8 15 -9 15 -15 0z"/>
<path d="M6565 4950 c3 -5 8 -10 11 -10 2 0 4 5 4 10 0 6 -5 10 -11 10 -5 0
-7 -4 -4 -10z"/>
<path d="M6563 4783 c9 -14 47 -24 47 -12 0 5 -4 9 -9 9 -5 0 -17 3 -27 7 -11
4 -15 3 -11 -4z"/>
<path d="M6302 4135 c0 -16 2 -22 5 -12 2 9 2 23 0 30 -3 6 -5 -1 -5 -18z"/>
<path d="M6557 2454 c4 -12 8 -14 11 -6 3 10 7 10 20 0 13 -11 14 -11 10 2 -2
8 -14 16 -26 18 -17 3 -20 0 -15 -14z"/>
<path d="M6543 2432 c-29 -3 -31 -6 -35 -49 -3 -41 0 -48 28 -69 40 -31 44
-30 45 9 l2 32 7 -35 c6 -28 8 -21 9 36 1 78 -2 82 -56 76z"/>
<path d="M6591 2254 c0 -11 3 -14 6 -6 3 7 2 16 -1 19 -3 4 -6 -2 -5 -13z"/>
<path d="M4810 5130 c0 -5 5 -10 10 -10 6 0 10 5 10 10 0 6 -4 10 -10 10 -5 0
-10 -4 -10 -10z"/>
<path d="M4863 5045 c-3 -9 -3 -18 -1 -21 3 -3 8 4 11 16 6 23 -1 27 -10 5z"/>
<path d="M4801 5036 c-9 -11 -10 -20 -2 -33 8 -14 10 -15 11 -3 0 13 1 13 10
0 8 -11 9 -7 4 15 -9 38 -9 38 -23 21z"/>
<path d="M4831 4983 c-7 -8 -11 -16 -8 -19 2 -2 10 2 17 11 17 20 9 27 -9 8z"/>
<path d="M3958 4923 c7 -3 16 -2 19 1 4 3 -2 6 -13 5 -11 0 -14 -3 -6 -6z"/>
<path d="M4726 4884 c3 -35 12 -41 12 -9 0 14 -4 27 -8 30 -4 2 -6 -7 -4 -21z"/>
<path d="M4680 4725 c0 -5 5 -17 10 -25 5 -8 10 -10 10 -5 0 6 -5 17 -10 25
-5 8 -10 11 -10 5z"/>
<path d="M4647 4646 c-3 -7 -1 -19 4 -27 7 -11 9 -11 9 -1 0 7 5 10 10 7 15
-9 12 4 -4 20 -11 12 -15 12 -19 1z"/>
<path d="M5266 4823 c-4 -5 -17 -8 -28 -8 -15 0 -25 -11 -35 -35 l-13 -35 5
32 c2 18 0 35 -5 38 -6 3 -7 -1 -4 -9 3 -9 2 -16 -4 -16 -5 0 -7 -11 -4 -25 4
-25 25 -34 37 -15 3 6 15 10 26 10 12 0 19 7 19 19 0 10 7 21 15 25 8 3 15 10
15 16 0 12 -13 13 -24 3z"/>
<path d="M5215 4720 c-3 -5 -1 -10 4 -10 6 0 11 5 11 10 0 6 -2 10 -4 10 -3 0
-8 -4 -11 -10z"/>
<path d="M5205 4660 c-3 -5 -1 -10 4 -10 6 0 11 5 11 10 0 6 -2 10 -4 10 -3 0
-8 -4 -11 -10z"/>
<path d="M5690 4838 c0 -4 13 -6 30 -5 16 1 30 5 30 10 0 4 -13 6 -30 5 -16
-1 -30 -6 -30 -10z"/>
<path d="M5578 4833 c7 -3 16 -2 19 1 4 3 -2 6 -13 5 -11 0 -14 -3 -6 -6z"/>
<path d="M4930 4042 c0 -5 7 -13 16 -16 10 -4 14 -1 12 6 -5 15 -28 23 -28 10z"/>
<path d="M5020 3376 c0 -9 30 -14 35 -6 4 6 -3 10 -14 10 -12 0 -21 -2 -21 -4z"/>
<path d="M5100 3217 c0 -8 5 -17 12 -19 6 -2 12 -13 13 -24 0 -10 6 -28 12
-39 11 -19 12 -19 19 -2 4 11 0 25 -10 36 -9 10 -16 22 -16 28 0 6 -7 16 -15
23 -12 10 -15 10 -15 -3z"/>
<path d="M5140 3081 c0 -25 6 -27 13 -6 4 8 2 17 -3 20 -6 4 -10 -3 -10 -14z"/>
<path d="M2350 2781 c-8 -15 -7 -19 5 -17 8 1 21 8 28 16 9 11 8 11 -7 0 -18
-14 -19 -13 -13 3 9 23 0 22 -13 -2z"/>
<path d="M3191 2374 c0 -11 3 -14 6 -6 3 7 2 16 -1 19 -3 4 -6 -2 -5 -13z"/>
<path d="M3140 2365 c0 -5 5 -17 10 -25 5 -8 10 -10 10 -5 0 6 -5 17 -10 25
-5 8 -10 11 -10 5z"/>
<path d="M4937 2210 c-25 -23 -27 -28 -12 -33 10 -5 14 -13 11 -25 -7 -20 26
-67 38 -55 3 3 6 -5 7 -18 0 -22 1 -23 9 -4 l9 20 1 -20 c2 -18 3 -18 8 3 10
32 2 168 -8 152 -6 -10 -12 -11 -22 -3 -10 8 -20 4 -41 -17z"/>
<path d="M2488 2103 c7 -3 16 -2 19 1 4 3 -2 6 -13 5 -11 0 -14 -3 -6 -6z"/>
<path d="M2400 2077 c0 -9 12 -11 40 -9 22 2 40 8 40 13 0 5 -18 9 -40 9 -26
0 -40 -5 -40 -13z"/>
<path d="M2312 2018 c5 -14 58 -30 58 -17 0 5 -12 10 -27 10 l-28 1 30 8 30 8
-33 1 c-22 1 -32 -3 -30 -11z"/>
<path d="M3494 1956 c-10 -27 2 -43 14 -19 8 14 9 24 2 28 -6 3 -13 -1 -16 -9z"/>
<path d="M2915 1840 c4 -6 11 -8 16 -5 14 9 11 15 -7 15 -8 0 -12 -5 -9 -10z"/>
<path d="M2714 1786 c-3 -8 -4 -22 -2 -31 2 -12 7 -7 15 14 6 18 7 31 2 31 -5
0 -12 -6 -15 -14z"/>
<path d="M385 4109 c4 -11 7 -55 7 -97 1 -51 3 -69 8 -52 17 55 9 170 -12 170
-5 0 -6 -9 -3 -21z"/>
<path d="M601 3324 c0 -11 3 -14 6 -6 3 7 2 16 -1 19 -3 4 -6 -2 -5 -13z"/>
<path d="M1717 4223 c-10 -9 -9 -23 2 -23 5 0 11 7 15 15 5 15 -5 20 -17 8z"/>
<path d="M2316 4064 c-3 -8 -2 -12 3 -9 5 3 11 -3 13 -12 3 -15 5 -15 10 -3 3
8 0 21 -7 27 -10 10 -14 9 -19 -3z"/>
<path d="M2285 4040 c-3 -5 -1 -10 4 -10 6 0 11 5 11 10 0 6 -2 10 -4 10 -3 0
-8 -4 -11 -10z"/>
<path d="M2281 4004 c0 -11 3 -14 6 -6 3 7 2 16 -1 19 -3 4 -6 -2 -5 -13z"/>
<path d="M1522 2999 c6 -17 61 -24 85 -10 17 9 16 10 -2 9 -11 0 -35 3 -54 7
-27 6 -33 5 -29 -6z"/>
<path d="M1380 2540 c0 -5 5 -10 10 -10 6 0 10 5 10 10 0 6 -4 10 -10 10 -5 0
-10 -4 -10 -10z"/>
<path d="M1182 2270 c0 -19 2 -27 5 -17 2 9 2 25 0 35 -3 9 -5 1 -5 -18z"/>
<path d="M1171 2204 c0 -11 3 -14 6 -6 3 7 2 16 -1 19 -3 4 -6 -2 -5 -13z"/>
<path d="M5410 2960 c0 -5 7 -7 15 -4 8 4 15 8 15 10 0 2 -7 4 -15 4 -8 0 -15
-4 -15 -10z"/>
<path d="M5430 2939 c0 -5 5 -7 10 -4 6 3 10 8 10 11 0 2 -4 4 -10 4 -5 0 -10
-5 -10 -11z"/>
<path d="M692 2695 c0 -16 2 -22 5 -12 2 9 2 23 0 30 -3 6 -5 -1 -5 -18z"/>
<path d="M690 2640 c0 -5 5 -10 11 -10 5 0 7 5 4 10 -3 6 -8 10 -11 10 -2 0
-4 -4 -4 -10z"/>
<path d="M263 2453 c-7 -3 -13 -8 -13 -13 0 -11 28 -21 34 -12 7 12 -8 29 -21
25z"/>
<path d="M5085 1980 c-3 -5 -1 -10 4 -10 6 0 11 5 11 10 0 6 -2 10 -4 10 -3 0
-8 -4 -11 -10z"/>
<path d="M1260 1570 c0 -5 5 -10 11 -10 5 0 7 5 4 10 -3 6 -8 10 -11 10 -2 0
-4 -4 -4 -10z"/>
<path d="M1846 7284 c-3 -9 -2 -12 4 -9 6 4 24 -1 42 -9 44 -22 46 -13 3 13
-43 25 -41 25 -49 5z"/>
<path d="M1878 7243 c7 -3 16 -2 19 1 4 3 -2 6 -13 5 -11 0 -14 -3 -6 -6z"/>
<path d="M3220 6928 c0 -19 2 -20 10 -8 13 19 13 30 0 30 -5 0 -10 -10 -10
-22z"/>
<path d="M3210 6791 c-13 -25 -13 -34 0 -26 16 10 32 45 21 45 -6 0 -15 -9
-21 -19z"/>
<path d="M3140 6379 c-19 -4 -36 -12 -38 -18 -2 -6 -11 -11 -20 -12 -12 0 -10
-3 6 -10 15 -6 31 -5 44 2 11 6 31 8 44 5 19 -5 24 -2 24 13 0 24 -16 30 -60
20z"/>
<path d="M3235 6340 c4 -6 11 -8 16 -5 14 9 11 15 -7 15 -8 0 -12 -5 -9 -10z"/>
<path d="M3090 6275 c0 -8 5 -15 10 -15 6 0 10 7 10 15 0 8 -4 15 -10 15 -5 0
-10 -7 -10 -15z"/>
<path d="M3283 6250 c-1 -20 2 -30 12 -30 20 0 24 11 14 38 -12 31 -24 28 -26
-8z"/>
<path d="M3178 5913 c7 -3 16 -2 19 1 4 3 -2 6 -13 5 -11 0 -14 -3 -6 -6z"/>
</g>
</svg>
